{
  "source": "C:\\Users\\Peter\\Desktop\\stuff\\MIUN\\quantitative_research\\video_compression\\videos\\BVI-HD\\BVI-HD_CDVL_videos\\ORIG\\Grass_1920x1080_60fps.mp4",
  "output": "C:\\Users\\Peter\\Desktop\\stuff\\MIUN\\quantitative_research\\video_compression\\compressed_videos\\BVI-HD\\hevc\\2\\Grass_1920x1080_60fps_hevc.mp4",
  "codec": "hevc",
  "ok": "Input #0, mov,mp4,m4a,3gp,3g2,mj2, from 'C:\\Users\\Peter\\Desktop\\stuff\\MIUN\\quantitative_research\\video_compression\\videos\\BVI-HD\\BVI-HD_CDVL_videos\\ORIG\\Grass_1920x1080_60fps.mp4':\n  Metadata:\n    major_brand     : isom\n    minor_version   : 512\n    compatible_brands: isomiso2avc1mp41\n    encoder         : Lavf54.28.101\n  Duration: 00:00:05.00, start: 0.000000, bitrate: 655968 kb/s\n  Stream #0:0[0x1](und): Video: h264 (High 4:4:4 Predictive) (avc1 / 0x31637661), yuv420p(progressive), 1920x1080, 655963 kb/s, 60 fps, 60 tbr, 60 tbn (default)\n    Metadata:\n      handler_name    : VideoHandler\n      vendor_id       : [0][0][0][0]\n[out#0/mp4 @ 00000221d206f040] Codec AVOption b:a (set bitrate (in bits/s)) has not been used for any stream. The most likely reason is either wrong type (e.g. a video option with no video streams) or that it is a private option of some decoder which was not actually used for any stream.\nStream mapping:\n  Stream #0:0 -> #0:0 (h264 (native) -> hevc (libx265))\nPress [q] to stop, [?] for help\n[libx265 @ 00000221d127c500] Unknown option: \"aq-mode.\nx265 [info]: HEVC encoder version 4.1+190-8f11c33ac\nx265 [info]: build info [Windows][GCC 15.1.0][64 bit] 10bit\nx265 [info]: using cpu capabilities: MMX2 SSE2Fast LZCNT SSSE3 SSE4.2 AVX FMA3 BMI2 AVX2\nx265 [info]: Main 10 profile, Level-4.1 (Main tier)\nx265 [info]: Thread pool created using 12 threads\nx265 [info]: Slices                              : 1\nx265 [info]: frame threads / pool features       : 3 / wpp(17 rows)\nx265 [info]: Coding QT: max CU size, min CU size : 64 / 8\nx265 [info]: Residual QT: max TU size, max depth : 32 / 1 inter / 1 intra\nx265 [info]: ME / range / subpel / merge         : star / 57 / 3 / 3\nx265 [info]: Keyframe min / max / scenecut / bias  : 25 / 250 / 40 / 5.00 \nx265 [info]: Lookahead / bframes / badapt        : 25 / 4 / 2\nx265 [info]: b-pyramid / weightp / weightb       : 1 / 1 / 0\nx265 [info]: References / ref-limit  cu / depth  : 4 / on / on\nx265 [info]: AQ: mode / str / qg-size / cu-tree  : 2 / 1.0 / 32 / 1\nx265 [info]: Rate Control / qCompress            : ABR-2000 kbps / 0.60\nx265 [info]: VBV/HRD buffer / max-rate / init    : 2000 / 2000 / 0.750\nx265 [info]: tools: rect limit-modes rd=4 psy-rd=2.00 rdoq=2 psy-rdoq=1.00\nx265 [info]: tools: rskip mode=1 signhide tmvp strong-intra-smoothing lslices=4\nx265 [info]: tools: deblock sao dhdr10-info\nOutput #0, mp4, to 'C:\\Users\\Peter\\Desktop\\stuff\\MIUN\\quantitative_research\\video_compression\\compressed_videos\\BVI-HD\\hevc\\2\\Grass_1920x1080_60fps_hevc.mp4':\n  Metadata:\n    major_brand     : isom\n    minor_version   : 512\n    compatible_brands: isomiso2avc1mp41\n    encoder         : Lavf62.3.100\n  Stream #0:0(und): Video: hevc (hev1 / 0x31766568), yuv420p10le(tv, progressive), 1920x1080, q=2-31, 2000 kb/s, 60 fps, 15360 tbn (default)\n    Metadata:\n      encoder         : Lavc62.11.100 libx265\n      handler_name    : VideoHandler\n      vendor_id       : [0][0][0][0]\n    Side data:\n      cpb: bitrate max/min/avg: 2000000/0/2000000 buffer size: 2000000 vbv_delay: N/A\nframe=    0 fps=0.0 q=0.0 size=       0KiB time=N/A bitrate=N/A speed=N/A elapsed=0:00:01.80    \nframe=    0 fps=0.0 q=0.0 size=       0KiB time=N/A bitrate=N/A speed=N/A elapsed=0:00:02.34    \nframe=    0 fps=0.0 q=0.0 size=       0KiB time=N/A bitrate=N/A speed=N/A elapsed=0:00:02.87    \nframe=    0 fps=0.0 q=0.0 size=       0KiB time=N/A bitrate=N/A speed=N/A elapsed=0:00:03.43    \nframe=    0 fps=0.0 q=0.0 size=       0KiB time=N/A bitrate=N/A speed=N/A elapsed=0:00:03.95    \nframe=    0 fps=0.0 q=0.0 size=       0KiB time=N/A bitrate=N/A speed=N/A elapsed=0:00:04.46    \nframe=    0 fps=0.0 q=0.0 size=       0KiB time=N/A bitrate=N/A speed=N/A elapsed=0:00:05.01    \nframe=    0 fps=0.0 q=0.0 size=       0KiB time=N/A bitrate=N/A speed=N/A elapsed=0:00:05.53    \nframe=    0 fps=0.0 q=0.0 size=       0KiB time=N/A bitrate=N/A speed=N/A elapsed=0:00:06.04    \nframe=    0 fps=0.0 q=0.0 size=       0KiB time=N/A bitrate=N/A speed=N/A elapsed=0:00:06.64    \nframe=    0 fps=0.0 q=0.0 size=       0KiB time=N/A bitrate=N/A speed=N/A elapsed=0:00:07.14    \nframe=    0 fps=0.0 q=0.0 size=       0KiB time=N/A bitrate=N/A speed=N/A elapsed=0:00:07.66    \nframe=    0 fps=0.0 q=0.0 size=       0KiB time=N/A bitrate=N/A speed=N/A elapsed=0:00:08.20    \nframe=    0 fps=0.0 q=0.0 size=       0KiB time=N/A bitrate=N/A speed=N/A elapsed=0:00:08.71    \nframe=    0 fps=0.0 q=0.0 size=       0KiB time=N/A bitrate=N/A speed=N/A elapsed=0:00:09.23    \nframe=    0 fps=0.0 q=0.0 size=       0KiB time=N/A bitrate=N/A speed=N/A elapsed=0:00:09.80    \nframe=    0 fps=0.0 q=0.0 size=       0KiB time=N/A bitrate=N/A speed=N/A elapsed=0:00:10.30    \nframe=    0 fps=0.0 q=0.0 size=       0KiB time=N/A bitrate=N/A speed=N/A elapsed=0:00:10.84    \nframe=    1 fps=0.1 q=43.9 size=       0KiB time=-00:00:00.01 bitrate=N/A speed=N/A elapsed=0:00:11.40    \nframe=    2 fps=0.2 q=51.0 size=       0KiB time=00:00:00.00 bitrate=N/A speed=   0x elapsed=0:00:11.92    \nframe=    2 fps=0.2 q=51.0 size=       0KiB time=00:00:00.00 bitrate=N/A speed=   0x elapsed=0:00:12.42    \nframe=    3 fps=0.2 q=51.0 size=       0KiB time=00:00:00.01 bitrate=  21.1kbits/s speed=0.00129x elapsed=0:00:12.96    \nframe=    3 fps=0.2 q=51.0 size=       0KiB time=00:00:00.01 bitrate=  21.1kbits/s speed=0.00124x elapsed=0:00:13.48    \nframe=    4 fps=0.3 q=51.0 size=       0KiB time=00:00:00.03 bitrate=  10.6kbits/s speed=0.00238x elapsed=0:00:14.01    \nframe=    6 fps=0.4 q=46.9 size=       0KiB time=00:00:00.06 bitrate=   5.3kbits/s speed=0.00459x elapsed=0:00:14.53    \nframe=    6 fps=0.4 q=46.9 size=       0KiB time=00:00:00.06 bitrate=   5.3kbits/s speed=0.00443x elapsed=0:00:15.04    \nframe=    7 fps=0.4 q=51.0 size=       0KiB time=00:00:00.06 bitrate=   5.3kbits/s speed=0.00428x elapsed=0:00:15.57    \nframe=    8 fps=0.5 q=51.0 size=       0KiB time=00:00:00.10 bitrate=   3.5kbits/s speed=0.00621x elapsed=0:00:16.11    \nframe=    8 fps=0.5 q=51.0 size=       0KiB time=00:00:00.10 bitrate=   3.5kbits/s speed=0.00602x elapsed=0:00:16.62    \nframe=    9 fps=0.5 q=48.9 size=       0KiB time=00:00:00.11 bitrate=   3.0kbits/s speed=0.00681x elapsed=0:00:17.14    \nframe=   10 fps=0.6 q=48.0 size=       0KiB time=00:00:00.13 bitrate=   2.6kbits/s speed=0.00755x elapsed=0:00:17.65    \nframe=   11 fps=0.6 q=43.5 size=       0KiB time=00:00:00.15 bitrate=   2.3kbits/s speed=0.00825x elapsed=0:00:18.19    \nframe=   11 fps=0.6 q=43.5 size=       0KiB time=00:00:00.15 bitrate=   2.3kbits/s speed=0.00801x elapsed=0:00:18.73    \nframe=   13 fps=0.7 q=48.0 size=       0KiB time=00:00:00.18 bitrate=   1.9kbits/s speed=0.00953x elapsed=0:00:19.24    \nframe=   13 fps=0.7 q=48.0 size=       0KiB time=00:00:00.18 bitrate=   1.9kbits/s speed=0.00928x elapsed=0:00:19.75    \nframe=   13 fps=0.6 q=48.0 size=       0KiB time=00:00:00.18 bitrate=   1.9kbits/s speed=0.00903x elapsed=0:00:20.31    \nframe=   14 fps=0.7 q=42.7 size=       0KiB time=00:00:00.20 bitrate=   1.8kbits/s speed=0.0096x elapsed=0:00:20.82    \nframe=   15 fps=0.7 q=49.8 size=       0KiB time=00:00:00.21 bitrate=   1.6kbits/s speed=0.0102x elapsed=0:00:21.34    \nframe=   15 fps=0.7 q=49.8 size=       0KiB time=00:00:00.21 bitrate=   1.6kbits/s speed=0.00991x elapsed=0:00:21.85    \nframe=   15 fps=0.7 q=49.8 size=       0KiB time=00:00:00.21 bitrate=   1.6kbits/s speed=0.00968x elapsed=0:00:22.38    \nframe=   16 fps=0.7 q=51.0 size=       0KiB time=00:00:00.23 bitrate=   1.5kbits/s speed=0.0102x elapsed=0:00:22.91    \nframe=   16 fps=0.7 q=51.0 size=       0KiB time=00:00:00.23 bitrate=   1.5kbits/s speed=0.00996x elapsed=0:00:23.43    \nframe=   17 fps=0.7 q=51.0 size=       0KiB time=00:00:00.25 bitrate=   1.4kbits/s speed=0.0104x elapsed=0:00:23.96    \nframe=   17 fps=0.7 q=51.0 size=       0KiB time=00:00:00.25 bitrate=   1.4kbits/s speed=0.0102x elapsed=0:00:24.47    \nframe=   18 fps=0.7 q=43.0 size=       0KiB time=00:00:00.26 bitrate=   1.3kbits/s speed=0.0107x elapsed=0:00:24.99    \nframe=   19 fps=0.7 q=49.8 size=       0KiB time=00:00:00.28 bitrate=   1.2kbits/s speed=0.0111x elapsed=0:00:25.53    \nframe=   19 fps=0.7 q=49.8 size=       0KiB time=00:00:00.28 bitrate=   1.2kbits/s speed=0.0109x elapsed=0:00:26.04    \nframe=   19 fps=0.7 q=49.8 size=       0KiB time=00:00:00.28 bitrate=   1.2kbits/s speed=0.0107x elapsed=0:00:26.56    \nframe=   19 fps=0.7 q=49.8 size=       0KiB time=00:00:00.28 bitrate=   1.2kbits/s speed=0.0105x elapsed=0:00:27.07    \nframe=   20 fps=0.7 q=51.0 size=       0KiB time=00:00:00.30 bitrate=   1.2kbits/s speed=0.0109x elapsed=0:00:27.60    \nframe=   21 fps=0.7 q=50.0 size=       0KiB time=00:00:00.31 bitrate=   1.1kbits/s speed=0.0112x elapsed=0:00:28.17    \nframe=   21 fps=0.7 q=50.0 size=       0KiB time=00:00:00.31 bitrate=   1.1kbits/s speed=0.011x elapsed=0:00:28.71    \nframe=   21 fps=0.7 q=50.0 size=       0KiB time=00:00:00.31 bitrate=   1.1kbits/s speed=0.0108x elapsed=0:00:29.24    \nframe=   22 fps=0.7 q=42.3 size=       0KiB time=00:00:00.33 bitrate=   1.1kbits/s speed=0.0112x elapsed=0:00:29.78    \nframe=   23 fps=0.8 q=48.9 size=       0KiB time=00:00:00.35 bitrate=   1.0kbits/s speed=0.0115x elapsed=0:00:30.33    \nframe=   24 fps=0.8 q=50.0 size=       0KiB time=00:00:00.36 bitrate=   1.0kbits/s speed=0.0119x elapsed=0:00:30.88    \nframe=   24 fps=0.8 q=50.0 size=       0KiB time=00:00:00.36 bitrate=   1.0kbits/s speed=0.0117x elapsed=0:00:31.40    \nframe=   25 fps=0.8 q=50.0 size=       0KiB time=00:00:00.38 bitrate=   0.9kbits/s speed=0.012x elapsed=0:00:31.93    \nframe=   26 fps=0.8 q=42.2 size=       0KiB time=00:00:00.40 bitrate=   0.9kbits/s speed=0.0123x elapsed=0:00:32.46    \nframe=   26 fps=0.8 q=42.2 size=       0KiB time=00:00:00.40 bitrate=   0.9kbits/s speed=0.0121x elapsed=0:00:32.98    \nframe=   26 fps=0.8 q=42.2 size=       0KiB time=00:00:00.40 bitrate=   0.9kbits/s speed=0.0119x elapsed=0:00:33.50    \nframe=   27 fps=0.8 q=49.0 size=       0KiB time=00:00:00.41 bitrate=   0.8kbits/s speed=0.0122x elapsed=0:00:34.03    \nframe=   28 fps=0.8 q=50.0 size=       0KiB time=00:00:00.43 bitrate=   0.8kbits/s speed=0.0125x elapsed=0:00:34.54    \nframe=   29 fps=0.8 q=41.7 size=       0KiB time=00:00:00.45 bitrate=   0.8kbits/s speed=0.0128x elapsed=0:00:35.07    \nframe=   29 fps=0.8 q=41.7 size=       0KiB time=00:00:00.45 bitrate=   0.8kbits/s speed=0.0126x elapsed=0:00:35.59    \nframe=   30 fps=0.8 q=47.8 size=       0KiB time=00:00:00.46 bitrate=   0.8kbits/s speed=0.0129x elapsed=0:00:36.12    \nframe=   30 fps=0.8 q=47.8 size=       0KiB time=00:00:00.46 bitrate=   0.8kbits/s speed=0.0127x elapsed=0:00:36.66    \nframe=   30 fps=0.8 q=47.8 size=       0KiB time=00:00:00.46 bitrate=   0.8kbits/s speed=0.0125x elapsed=0:00:37.19    \nframe=   30 fps=0.8 q=47.8 size=       0KiB time=00:00:00.46 bitrate=   0.8kbits/s speed=0.0124x elapsed=0:00:37.71    \nframe=   30 fps=0.8 q=47.8 size=       0KiB time=00:00:00.46 bitrate=   0.8kbits/s speed=0.0122x elapsed=0:00:38.25    \nframe=   30 fps=0.8 q=47.8 size=       0KiB time=00:00:00.46 bitrate=   0.8kbits/s speed=0.012x elapsed=0:00:38.77    \nframe=   31 fps=0.8 q=48.0 size=       0KiB time=00:00:00.48 bitrate=   0.7kbits/s speed=0.0123x elapsed=0:00:39.31    \nframe=   32 fps=0.8 q=49.0 size=       0KiB time=00:00:00.50 bitrate=   0.7kbits/s speed=0.0126x elapsed=0:00:39.82    \nframe=   33 fps=0.8 q=41.8 size=       0KiB time=00:00:00.51 bitrate=   0.7kbits/s speed=0.0128x elapsed=0:00:40.38    \nframe=   34 fps=0.8 q=47.6 size=       0KiB time=00:00:00.53 bitrate=   0.7kbits/s speed=0.013x elapsed=0:00:40.90    \nframe=   34 fps=0.8 q=47.6 size=       0KiB time=00:00:00.53 bitrate=   0.7kbits/s speed=0.0129x elapsed=0:00:41.42    \nframe=   35 fps=0.8 q=48.0 size=       0KiB time=00:00:00.55 bitrate=   0.6kbits/s speed=0.0131x elapsed=0:00:41.96    \nframe=   35 fps=0.8 q=48.0 size=       0KiB time=00:00:00.55 bitrate=   0.6kbits/s speed=0.0129x elapsed=0:00:42.47    \nframe=   36 fps=0.8 q=48.0 size=       0KiB time=00:00:00.56 bitrate=   0.6kbits/s speed=0.0132x elapsed=0:00:43.02    \nframe=   37 fps=0.8 q=41.5 size=       0KiB time=00:00:00.58 bitrate=   0.6kbits/s speed=0.0134x elapsed=0:00:43.54    \nframe=   38 fps=0.9 q=47.7 size=       0KiB time=00:00:00.60 bitrate=   0.6kbits/s speed=0.0136x elapsed=0:00:44.08    \nframe=   38 fps=0.9 q=47.7 size=       0KiB time=00:00:00.60 bitrate=   0.6kbits/s speed=0.0134x elapsed=0:00:44.61    \nframe=   38 fps=0.8 q=47.7 size=       0KiB time=00:00:00.60 bitrate=   0.6kbits/s speed=0.0133x elapsed=0:00:45.15    \nframe=   39 fps=0.9 q=48.0 size=       0KiB time=00:00:00.61 bitrate=   0.6kbits/s speed=0.0135x elapsed=0:00:45.68    \nframe=   39 fps=0.8 q=48.0 size=       0KiB time=00:00:00.61 bitrate=   0.6kbits/s speed=0.0133x elapsed=0:00:46.20    \nframe=   40 fps=0.9 q=48.0 size=       0KiB time=00:00:00.63 bitrate=   0.6kbits/s speed=0.0135x elapsed=0:00:46.74    \nframe=   40 fps=0.8 q=48.0 size=       0KiB time=00:00:00.63 bitrate=   0.6kbits/s speed=0.0134x elapsed=0:00:47.30    \nframe=   41 fps=0.9 q=41.2 size=       0KiB time=00:00:00.65 bitrate=   0.5kbits/s speed=0.0136x elapsed=0:00:47.84    \nframe=   41 fps=0.8 q=41.2 size=       0KiB time=00:00:00.65 bitrate=   0.5kbits/s speed=0.0134x elapsed=0:00:48.38    \nframe=   41 fps=0.8 q=41.2 size=       0KiB time=00:00:00.65 bitrate=   0.5kbits/s speed=0.0133x elapsed=0:00:48.93    \nframe=   42 fps=0.8 q=46.9 size=       0KiB time=00:00:00.66 bitrate=   0.5kbits/s speed=0.0135x elapsed=0:00:49.46    \nframe=   43 fps=0.9 q=48.0 size=       0KiB time=00:00:00.68 bitrate=   0.5kbits/s speed=0.0137x elapsed=0:00:49.98    \nframe=   44 fps=0.9 q=41.0 size=       0KiB time=00:00:00.70 bitrate=   0.5kbits/s speed=0.0139x elapsed=0:00:50.51    \nframe=   44 fps=0.9 q=41.0 size=       0KiB time=00:00:00.70 bitrate=   0.5kbits/s speed=0.0137x elapsed=0:00:51.03    \nframe=   44 fps=0.9 q=41.0 size=       0KiB time=00:00:00.70 bitrate=   0.5kbits/s speed=0.0136x elapsed=0:00:51.56    \nframe=   45 fps=0.9 q=46.6 size=       0KiB time=00:00:00.71 bitrate=   0.5kbits/s speed=0.0138x elapsed=0:00:52.07    \nframe=   45 fps=0.9 q=46.6 size=       0KiB time=00:00:00.71 bitrate=   0.5kbits/s speed=0.0136x elapsed=0:00:52.62    \nframe=   45 fps=0.8 q=46.6 size=       0KiB time=00:00:00.71 bitrate=   0.5kbits/s speed=0.0135x elapsed=0:00:53.14    \nframe=   45 fps=0.8 q=46.6 size=       0KiB time=00:00:00.71 bitrate=   0.5kbits/s speed=0.0134x elapsed=0:00:53.67    \nframe=   45 fps=0.8 q=46.6 size=       0KiB time=00:00:00.71 bitrate=   0.5kbits/s speed=0.0132x elapsed=0:00:54.20    \nframe=   46 fps=0.8 q=47.0 size=       0KiB time=00:00:00.73 bitrate=   0.5kbits/s speed=0.0134x elapsed=0:00:54.72    \nframe=   46 fps=0.8 q=47.0 size=       0KiB time=00:00:00.73 bitrate=   0.5kbits/s speed=0.0133x elapsed=0:00:55.25    \nframe=   47 fps=0.8 q=48.0 size=       0KiB time=00:00:00.75 bitrate=   0.5kbits/s speed=0.0134x elapsed=0:00:55.80    \nframe=   48 fps=0.9 q=41.2 size=       0KiB time=00:00:00.76 bitrate=   0.5kbits/s speed=0.0136x elapsed=0:00:56.34    \nframe=   48 fps=0.8 q=41.2 size=       0KiB time=00:00:00.76 bitrate=   0.5kbits/s speed=0.0135x elapsed=0:00:56.87    \nframe=   49 fps=0.9 q=46.7 size=       0KiB time=00:00:00.78 bitrate=   0.4kbits/s speed=0.0136x elapsed=0:00:57.39    \nframe=   49 fps=0.8 q=46.7 size=       0KiB time=00:00:00.78 bitrate=   0.4kbits/s speed=0.0135x elapsed=0:00:57.91    \nframe=   50 fps=0.9 q=48.0 size=       0KiB time=00:00:00.80 bitrate=   0.4kbits/s speed=0.0137x elapsed=0:00:58.46    \nframe=   51 fps=0.9 q=47.0 size=       0KiB time=00:00:00.81 bitrate=   0.4kbits/s speed=0.0138x elapsed=0:00:58.99    \nframe=   51 fps=0.9 q=47.0 size=       0KiB time=00:00:00.81 bitrate=   0.4kbits/s speed=0.0137x elapsed=0:00:59.50    \nframe=   52 fps=0.9 q=41.2 size=       0KiB time=00:00:00.83 bitrate=   0.4kbits/s speed=0.0139x elapsed=0:01:00.03    \nframe=   52 fps=0.9 q=41.2 size=       0KiB time=00:00:00.83 bitrate=   0.4kbits/s speed=0.0138x elapsed=0:01:00.55    \nframe=   53 fps=0.9 q=46.8 size=       0KiB time=00:00:00.85 bitrate=   0.4kbits/s speed=0.0139x elapsed=0:01:01.07    \nframe=   54 fps=0.9 q=47.0 size=       0KiB time=00:00:00.86 bitrate=   0.4kbits/s speed=0.0141x elapsed=0:01:01.61    \nframe=   55 fps=0.9 q=40.7 size=       0KiB time=00:00:00.88 bitrate=   0.4kbits/s speed=0.0142x elapsed=0:01:02.12    \nframe=   55 fps=0.9 q=40.7 size=       0KiB time=00:00:00.88 bitrate=   0.4kbits/s speed=0.0141x elapsed=0:01:02.69    \nframe=   55 fps=0.9 q=40.7 size=       0KiB time=00:00:00.88 bitrate=   0.4kbits/s speed=0.014x elapsed=0:01:03.27    \nframe=   56 fps=0.9 q=45.5 size=       0KiB time=00:00:00.90 bitrate=   0.4kbits/s speed=0.0141x elapsed=0:01:03.82    \nframe=   56 fps=0.9 q=45.5 size=       0KiB time=00:00:00.90 bitrate=   0.4kbits/s speed=0.014x elapsed=0:01:04.38    \nframe=   56 fps=0.9 q=45.5 size=       0KiB time=00:00:00.90 bitrate=   0.4kbits/s speed=0.0139x elapsed=0:01:04.92    \nframe=   56 fps=0.9 q=45.5 size=       0KiB time=00:00:00.90 bitrate=   0.4kbits/s speed=0.0138x elapsed=0:01:05.43    \nframe=   57 fps=0.9 q=46.0 size=       0KiB time=00:00:00.91 bitrate=   0.4kbits/s speed=0.0139x elapsed=0:01:05.95    \nframe=   58 fps=0.9 q=47.0 size=       0KiB time=00:00:00.93 bitrate=   0.4kbits/s speed=0.014x elapsed=0:01:06.46    \nframe=   59 fps=0.9 q=40.6 size=       0KiB time=00:00:00.95 bitrate=   0.4kbits/s speed=0.0142x elapsed=0:01:06.99    \nframe=   59 fps=0.9 q=40.6 size=       0KiB time=00:00:00.95 bitrate=   0.4kbits/s speed=0.0141x elapsed=0:01:07.51    \nframe=   60 fps=0.9 q=46.6 size=       0KiB time=00:00:00.96 bitrate=   0.4kbits/s speed=0.0142x elapsed=0:01:08.04    \nframe=   60 fps=0.9 q=46.6 size=       0KiB time=00:00:00.96 bitrate=   0.4kbits/s speed=0.0141x elapsed=0:01:08.56    \nframe=   61 fps=0.9 q=47.0 size=       0KiB time=00:00:00.98 bitrate=   0.4kbits/s speed=0.0142x elapsed=0:01:09.07    \nframe=   62 fps=0.9 q=46.0 size=       0KiB time=00:00:01.00 bitrate=   0.4kbits/s speed=0.0144x elapsed=0:01:09.58    \nframe=   63 fps=0.9 q=40.5 size=       0KiB time=00:00:01.01 bitrate=   0.3kbits/s speed=0.0145x elapsed=0:01:10.10    \nframe=   64 fps=0.9 q=45.6 size=       0KiB time=00:00:01.03 bitrate=   0.3kbits/s speed=0.0146x elapsed=0:01:10.69    \nframe=   64 fps=0.9 q=45.6 size=       0KiB time=00:00:01.03 bitrate=   0.3kbits/s speed=0.0145x elapsed=0:01:11.21    \nframe=   64 fps=0.9 q=45.6 size=       0KiB time=00:00:01.03 bitrate=   0.3kbits/s speed=0.0144x elapsed=0:01:11.75    \nframe=   64 fps=0.9 q=45.6 size=       0KiB time=00:00:01.03 bitrate=   0.3kbits/s speed=0.0143x elapsed=0:01:12.28    \nframe=   64 fps=0.9 q=45.6 size=       0KiB time=00:00:01.03 bitrate=   0.3kbits/s speed=0.0142x elapsed=0:01:12.81    \nframe=   66 fps=0.9 q=46.0 size=       0KiB time=00:00:01.06 bitrate=   0.3kbits/s speed=0.0145x elapsed=0:01:13.32    \nframe=   66 fps=0.9 q=46.0 size=       0KiB time=00:00:01.06 bitrate=   0.3kbits/s speed=0.0144x elapsed=0:01:13.84    \nframe=   66 fps=0.9 q=46.0 size=       0KiB time=00:00:01.06 bitrate=   0.3kbits/s speed=0.0143x elapsed=0:01:14.39    \nframe=   67 fps=0.9 q=40.3 size=       0KiB time=00:00:01.08 bitrate=   0.3kbits/s speed=0.0144x elapsed=0:01:14.98    \nframe=   67 fps=0.9 q=40.3 size=       0KiB time=00:00:01.08 bitrate=   0.3kbits/s speed=0.0143x elapsed=0:01:15.50    \nframe=   68 fps=0.9 q=45.6 size=       0KiB time=00:00:01.10 bitrate=   0.3kbits/s speed=0.0145x elapsed=0:01:16.00    \nframe=   68 fps=0.9 q=45.6 size=       0KiB time=00:00:01.10 bitrate=   0.3kbits/s speed=0.0144x elapsed=0:01:16.52    \nframe=   69 fps=0.9 q=46.0 size=       0KiB time=00:00:01.11 bitrate=   0.3kbits/s speed=0.0145x elapsed=0:01:17.05    \nframe=   69 fps=0.9 q=46.0 size=       0KiB time=00:00:01.11 bitrate=   0.3kbits/s speed=0.0144x elapsed=0:01:17.55    \nframe=   70 fps=0.9 q=40.1 size=       0KiB time=00:00:01.13 bitrate=   0.3kbits/s speed=0.0145x elapsed=0:01:18.12    \nframe=   71 fps=0.9 q=45.5 size=     256KiB time=00:00:01.15 bitrate=1823.9kbits/s speed=0.0146x elapsed=0:01:18.69    \nframe=   71 fps=0.9 q=45.5 size=     256KiB time=00:00:01.15 bitrate=1823.9kbits/s speed=0.0145x elapsed=0:01:19.21    \nframe=   71 fps=0.9 q=45.5 size=     256KiB time=00:00:01.15 bitrate=1823.9kbits/s speed=0.0144x elapsed=0:01:19.76    \nframe=   71 fps=0.9 q=45.5 size=     256KiB time=00:00:01.15 bitrate=1823.9kbits/s speed=0.0143x elapsed=0:01:20.30    \nframe=   72 fps=0.9 q=46.0 size=     256KiB time=00:00:01.16 bitrate=1797.9kbits/s speed=0.0144x elapsed=0:01:20.82    \nframe=   73 fps=0.9 q=47.0 size=     256KiB time=00:00:01.18 bitrate=1772.5kbits/s speed=0.0145x elapsed=0:01:21.35    \nframe=   74 fps=0.9 q=40.1 size=     256KiB time=00:00:01.20 bitrate=1747.9kbits/s speed=0.0147x elapsed=0:01:21.88    \nframe=   74 fps=0.9 q=40.1 size=     256KiB time=00:00:01.20 bitrate=1747.9kbits/s speed=0.0146x elapsed=0:01:22.40    \nframe=   75 fps=0.9 q=45.6 size=     256KiB time=00:00:01.21 bitrate=1724.0kbits/s speed=0.0147x elapsed=0:01:22.91    \nframe=   75 fps=0.9 q=45.6 size=     256KiB time=00:00:01.21 bitrate=1724.0kbits/s speed=0.0146x elapsed=0:01:23.43    \nframe=   75 fps=0.9 q=45.6 size=     256KiB time=00:00:01.21 bitrate=1724.0kbits/s speed=0.0145x elapsed=0:01:23.96    \nframe=   76 fps=0.9 q=47.0 size=     256KiB time=00:00:01.23 bitrate=1700.7kbits/s speed=0.0146x elapsed=0:01:24.47    \nframe=   76 fps=0.9 q=47.0 size=     256KiB time=00:00:01.23 bitrate=1700.7kbits/s speed=0.0145x elapsed=0:01:25.00    \nframe=   77 fps=0.9 q=46.0 size=     256KiB time=00:00:01.25 bitrate=1678.0kbits/s speed=0.0146x elapsed=0:01:25.50    \nframe=   77 fps=0.9 q=46.0 size=     256KiB time=00:00:01.25 bitrate=1678.0kbits/s speed=0.0145x elapsed=0:01:26.02    \nframe=   78 fps=0.9 q=39.9 size=     256KiB time=00:00:01.26 bitrate=1655.9kbits/s speed=0.0146x elapsed=0:01:26.56    \nframe=   78 fps=0.9 q=39.9 size=     256KiB time=00:00:01.26 bitrate=1655.9kbits/s speed=0.0145x elapsed=0:01:27.07    \nframe=   79 fps=0.9 q=45.6 size=     256KiB time=00:00:01.28 bitrate=1634.4kbits/s speed=0.0147x elapsed=0:01:27.58    \nframe=   79 fps=0.9 q=45.6 size=     256KiB time=00:00:01.28 bitrate=1634.4kbits/s speed=0.0146x elapsed=0:01:28.10    \nframe=   80 fps=0.9 q=47.0 size=     256KiB time=00:00:01.30 bitrate=1613.5kbits/s speed=0.0147x elapsed=0:01:28.62    \nframe=   81 fps=0.9 q=40.0 size=     256KiB time=00:00:01.31 bitrate=1593.0kbits/s speed=0.0148x elapsed=0:01:29.13    \nframe=   82 fps=0.9 q=45.4 size=     256KiB time=00:00:01.33 bitrate=1573.1kbits/s speed=0.0149x elapsed=0:01:29.67    \nframe=   82 fps=0.9 q=45.4 size=     256KiB time=00:00:01.33 bitrate=1573.1kbits/s speed=0.0148x elapsed=0:01:30.20    \nframe=   83 fps=0.9 q=46.1 size=     256KiB time=00:00:01.35 bitrate=1553.7kbits/s speed=0.0149x elapsed=0:01:30.73    \nframe=   83 fps=0.9 q=46.1 size=     256KiB time=00:00:01.35 bitrate=1553.7kbits/s speed=0.0148x elapsed=0:01:31.25    \nframe=   84 fps=0.9 q=46.0 size=     256KiB time=00:00:01.36 bitrate=1534.8kbits/s speed=0.0149x elapsed=0:01:31.81    \nframe=   84 fps=0.9 q=46.0 size=     256KiB time=00:00:01.36 bitrate=1534.8kbits/s speed=0.0148x elapsed=0:01:32.36    \nframe=   86 fps=0.9 q=45.4 size=     256KiB time=00:00:01.40 bitrate=1498.2kbits/s speed=0.0151x elapsed=0:01:32.87    \nframe=   86 fps=0.9 q=45.4 size=     256KiB time=00:00:01.40 bitrate=1498.2kbits/s speed=0.015x elapsed=0:01:33.40    \nframe=   86 fps=0.9 q=45.4 size=     256KiB time=00:00:01.40 bitrate=1498.2kbits/s speed=0.0149x elapsed=0:01:33.94    \nframe=   87 fps=0.9 q=46.0 size=     256KiB time=00:00:01.41 bitrate=1480.6kbits/s speed=0.015x elapsed=0:01:34.46    \nframe=   88 fps=0.9 q=45.0 size=     256KiB time=00:00:01.43 bitrate=1463.4kbits/s speed=0.0151x elapsed=0:01:34.99    \nframe=   89 fps=0.9 q=39.7 size=     256KiB time=00:00:01.45 bitrate=1446.6kbits/s speed=0.0152x elapsed=0:01:35.52    \nframe=   89 fps=0.9 q=39.7 size=     256KiB time=00:00:01.45 bitrate=1446.6kbits/s speed=0.0151x elapsed=0:01:36.04    \nframe=   89 fps=0.9 q=39.7 size=     256KiB time=00:00:01.45 bitrate=1446.6kbits/s speed=0.015x elapsed=0:01:36.57    \nframe=   90 fps=0.9 q=44.7 size=     256KiB time=00:00:01.46 bitrate=1430.1kbits/s speed=0.0151x elapsed=0:01:37.10    \nframe=   91 fps=0.9 q=46.0 size=     256KiB time=00:00:01.48 bitrate=1414.0kbits/s speed=0.0152x elapsed=0:01:37.62    \nframe=   92 fps=0.9 q=39.8 size=     256KiB time=00:00:01.50 bitrate=1398.3kbits/s speed=0.0153x elapsed=0:01:38.13    \nframe=   93 fps=0.9 q=44.1 size=     256KiB time=00:00:01.51 bitrate=1383.0kbits/s speed=0.0154x elapsed=0:01:38.66    \nframe=   93 fps=0.9 q=44.1 size=     256KiB time=00:00:01.51 bitrate=1383.0kbits/s speed=0.0153x elapsed=0:01:39.19    \nframe=   93 fps=0.9 q=44.1 size=     256KiB time=00:00:01.51 bitrate=1383.0kbits/s speed=0.0152x elapsed=0:01:39.69    \nframe=   94 fps=0.9 q=45.0 size=     256KiB time=00:00:01.53 bitrate=1367.9kbits/s speed=0.0153x elapsed=0:01:40.21    \nframe=   95 fps=0.9 q=45.0 size=     256KiB time=00:00:01.55 bitrate=1353.2kbits/s speed=0.0154x elapsed=0:01:40.73    \nframe=   96 fps=0.9 q=39.4 size=     256KiB time=00:00:01.56 bitrate=1338.8kbits/s speed=0.0155x elapsed=0:01:41.26    \nframe=   96 fps=0.9 q=39.4 size=     256KiB time=00:00:01.56 bitrate=1338.8kbits/s speed=0.0154x elapsed=0:01:41.77    \nframe=   97 fps=0.9 q=44.7 size=     256KiB time=00:00:01.58 bitrate=1324.7kbits/s speed=0.0155x elapsed=0:01:42.31    \nframe=   97 fps=0.9 q=44.7 size=     256KiB time=00:00:01.58 bitrate=1324.7kbits/s speed=0.0154x elapsed=0:01:42.81    \nframe=   97 fps=0.9 q=44.7 size=     256KiB time=00:00:01.58 bitrate=1324.7kbits/s speed=0.0153x elapsed=0:01:43.34    \nframe=   97 fps=0.9 q=44.7 size=     256KiB time=00:00:01.58 bitrate=1324.7kbits/s speed=0.0152x elapsed=0:01:43.89    \nframe=   97 fps=0.9 q=44.7 size=     256KiB time=00:00:01.58 bitrate=1324.7kbits/s speed=0.0152x elapsed=0:01:44.46    \nframe=   97 fps=0.9 q=44.7 size=     256KiB time=00:00:01.58 bitrate=1324.7kbits/s speed=0.0151x elapsed=0:01:45.03    \nframe=   97 fps=0.9 q=44.7 size=     256KiB time=00:00:01.58 bitrate=1324.7kbits/s speed=0.015x elapsed=0:01:45.61    \nframe=   97 fps=0.9 q=44.7 size=     256KiB time=00:00:01.58 bitrate=1324.7kbits/s speed=0.0149x elapsed=0:01:46.16    \nframe=   97 fps=0.9 q=44.7 size=     256KiB time=00:00:01.58 bitrate=1324.7kbits/s speed=0.0148x elapsed=0:01:46.75    \nframe=   97 fps=0.9 q=44.7 size=     256KiB time=00:00:01.58 bitrate=1324.7kbits/s speed=0.0148x elapsed=0:01:47.31    \nframe=   97 fps=0.9 q=44.7 size=     256KiB time=00:00:01.58 bitrate=1324.7kbits/s speed=0.0147x elapsed=0:01:47.88    \nframe=   98 fps=0.9 q=45.0 size=     256KiB time=00:00:01.60 bitrate=1310.9kbits/s speed=0.0148x elapsed=0:01:48.43    \nframe=   99 fps=0.9 q=45.0 size=     256KiB time=00:00:01.61 bitrate=1297.4kbits/s speed=0.0148x elapsed=0:01:48.95    \nframe=  101 fps=0.9 q=44.4 size=     256KiB time=00:00:01.65 bitrate=1271.2kbits/s speed=0.0151x elapsed=0:01:49.47    \nframe=  101 fps=0.9 q=44.4 size=     256KiB time=00:00:01.65 bitrate=1271.2kbits/s speed=0.015x elapsed=0:01:50.00    \nframe=  101 fps=0.9 q=44.4 size=     256KiB time=00:00:01.65 bitrate=1271.2kbits/s speed=0.0149x elapsed=0:01:50.51    \nframe=  102 fps=0.9 q=45.0 size=     256KiB time=00:00:01.66 bitrate=1258.5kbits/s speed=0.015x elapsed=0:01:51.03    \nframe=  103 fps=0.9 q=45.0 size=     256KiB time=00:00:01.68 bitrate=1246.0kbits/s speed=0.0151x elapsed=0:01:51.54    \nframe=  105 fps=0.9 q=44.2 size=     256KiB time=00:00:01.71 bitrate=1221.8kbits/s speed=0.0153x elapsed=0:01:52.06    \nframe=  105 fps=0.9 q=44.2 size=     256KiB time=00:00:01.71 bitrate=1221.8kbits/s speed=0.0153x elapsed=0:01:52.56    \nframe=  106 fps=0.9 q=44.9 size=     256KiB time=00:00:01.73 bitrate=1210.1kbits/s speed=0.0153x elapsed=0:01:53.08    \nframe=  108 fps=1.0 q=39.2 size=     256KiB time=00:00:01.76 bitrate=1187.3kbits/s speed=0.0156x elapsed=0:01:53.61    \nframe=  109 fps=1.0 q=44.2 size=     256KiB time=00:00:01.78 bitrate=1176.2kbits/s speed=0.0156x elapsed=0:01:54.11    \nframe=  110 fps=1.0 q=45.0 size=     256KiB time=00:00:01.80 bitrate=1165.3kbits/s speed=0.0157x elapsed=0:01:54.63    \nframe=  111 fps=1.0 q=45.0 size=     256KiB time=00:00:01.81 bitrate=1154.6kbits/s speed=0.0158x elapsed=0:01:55.15    \nframe=  112 fps=1.0 q=39.4 size=     256KiB time=00:00:01.83 bitrate=1144.1kbits/s speed=0.0159x elapsed=0:01:55.66    \nframe=  113 fps=1.0 q=44.4 size=     256KiB time=00:00:01.85 bitrate=1133.8kbits/s speed=0.0159x elapsed=0:01:56.18    \nframe=  113 fps=1.0 q=44.4 size=     256KiB time=00:00:01.85 bitrate=1133.8kbits/s speed=0.0158x elapsed=0:01:56.72    \nframe=  114 fps=1.0 q=45.0 size=     256KiB time=00:00:01.86 bitrate=1123.7kbits/s speed=0.0159x elapsed=0:01:57.26    \nframe=  115 fps=1.0 q=45.0 size=     256KiB time=00:00:01.88 bitrate=1113.7kbits/s speed=0.016x elapsed=0:01:57.80    \nframe=  116 fps=1.0 q=39.0 size=     256KiB time=00:00:01.90 bitrate=1103.9kbits/s speed=0.0161x elapsed=0:01:58.32    \nframe=  117 fps=1.0 q=44.9 size=     256KiB time=00:00:01.91 bitrate=1094.3kbits/s speed=0.0161x elapsed=0:01:58.88    \nframe=  118 fps=1.0 q=45.0 size=     256KiB time=00:00:01.93 bitrate=1084.9kbits/s speed=0.0162x elapsed=0:01:59.44    \nframe=  118 fps=1.0 q=45.0 size=     256KiB time=00:00:01.93 bitrate=1084.9kbits/s speed=0.0161x elapsed=0:01:59.99    \nframe=  118 fps=1.0 q=45.0 size=     256KiB time=00:00:01.93 bitrate=1084.9kbits/s speed=0.016x elapsed=0:02:00.62    \nframe=  118 fps=1.0 q=45.0 size=     256KiB time=00:00:01.93 bitrate=1084.9kbits/s speed=0.0159x elapsed=0:02:01.28    \nframe=  120 fps=1.0 q=45.0 size=     256KiB time=00:00:01.96 bitrate=1066.5kbits/s speed=0.0161x elapsed=0:02:01.98    \nframe=  120 fps=1.0 q=45.0 size=     256KiB time=00:00:01.96 bitrate=1066.5kbits/s speed=0.016x elapsed=0:02:02.61    \nframe=  120 fps=1.0 q=45.0 size=     256KiB time=00:00:01.96 bitrate=1066.5kbits/s speed=0.016x elapsed=0:02:03.20    \nframe=  121 fps=1.0 q=39.2 size=     256KiB time=00:00:01.98 bitrate=1057.6kbits/s speed=0.016x elapsed=0:02:03.75    \nframe=  121 fps=1.0 q=39.2 size=     256KiB time=00:00:01.98 bitrate=1057.6kbits/s speed=0.016x elapsed=0:02:04.29    \nframe=  121 fps=1.0 q=39.2 size=     256KiB time=00:00:01.98 bitrate=1057.6kbits/s speed=0.0159x elapsed=0:02:04.84    \nframe=  121 fps=1.0 q=39.2 size=     256KiB time=00:00:01.98 bitrate=1057.6kbits/s speed=0.0158x elapsed=0:02:05.38    \nframe=  122 fps=1.0 q=44.5 size=     256KiB time=00:00:02.00 bitrate=1048.8kbits/s speed=0.0159x elapsed=0:02:05.93    \nframe=  122 fps=1.0 q=44.5 size=     256KiB time=00:00:02.00 bitrate=1048.8kbits/s speed=0.0158x elapsed=0:02:06.45    \nframe=  123 fps=1.0 q=46.0 size=     256KiB time=00:00:02.01 bitrate=1040.1kbits/s speed=0.0159x elapsed=0:02:06.97    \nframe=  123 fps=1.0 q=46.0 size=     256KiB time=00:00:02.01 bitrate=1040.1kbits/s speed=0.0158x elapsed=0:02:07.51    \nframe=  123 fps=1.0 q=46.0 size=     256KiB time=00:00:02.01 bitrate=1040.1kbits/s speed=0.0157x elapsed=0:02:08.07    \nframe=  123 fps=1.0 q=46.0 size=     256KiB time=00:00:02.01 bitrate=1040.1kbits/s speed=0.0157x elapsed=0:02:08.77    \nframe=  123 fps=1.0 q=46.0 size=     256KiB time=00:00:02.01 bitrate=1040.1kbits/s speed=0.0156x elapsed=0:02:09.33    \nframe=  123 fps=0.9 q=46.0 size=     256KiB time=00:00:02.01 bitrate=1040.1kbits/s speed=0.0155x elapsed=0:02:09.86    \nframe=  123 fps=0.9 q=46.0 size=     256KiB time=00:00:02.01 bitrate=1040.1kbits/s speed=0.0155x elapsed=0:02:10.41    \nframe=  124 fps=0.9 q=45.0 size=     256KiB time=00:00:02.03 bitrate=1031.6kbits/s speed=0.0155x elapsed=0:02:11.01    \nframe=  125 fps=0.9 q=39.0 size=     256KiB time=00:00:02.05 bitrate=1023.2kbits/s speed=0.0156x elapsed=0:02:11.60    \nframe=  125 fps=0.9 q=39.0 size=     256KiB time=00:00:02.05 bitrate=1023.2kbits/s speed=0.0155x elapsed=0:02:12.19    \nframe=  125 fps=0.9 q=39.0 size=     256KiB time=00:00:02.05 bitrate=1023.2kbits/s speed=0.0154x elapsed=0:02:12.81    \nframe=  126 fps=0.9 q=44.1 size=     256KiB time=00:00:02.06 bitrate=1014.9kbits/s speed=0.0155x elapsed=0:02:13.36    \nframe=  126 fps=0.9 q=44.1 size=     256KiB time=00:00:02.06 bitrate=1014.9kbits/s speed=0.0154x elapsed=0:02:13.94    \nframe=  126 fps=0.9 q=44.1 size=     256KiB time=00:00:02.06 bitrate=1014.9kbits/s speed=0.0154x elapsed=0:02:14.46    \nframe=  126 fps=0.9 q=44.1 size=     256KiB time=00:00:02.06 bitrate=1014.9kbits/s speed=0.0153x elapsed=0:02:15.09    \nframe=  126 fps=0.9 q=44.1 size=     256KiB time=00:00:02.06 bitrate=1014.9kbits/s speed=0.0152x elapsed=0:02:15.73    \nframe=  127 fps=0.9 q=45.0 size=     256KiB time=00:00:02.08 bitrate=1006.8kbits/s speed=0.0153x elapsed=0:02:16.30    \nframe=  127 fps=0.9 q=45.0 size=     256KiB time=00:00:02.08 bitrate=1006.8kbits/s speed=0.0152x elapsed=0:02:16.86    \nframe=  127 fps=0.9 q=45.0 size=     256KiB time=00:00:02.08 bitrate=1006.8kbits/s speed=0.0152x elapsed=0:02:17.43    \nframe=  128 fps=0.9 q=45.0 size=     256KiB time=00:00:02.10 bitrate= 998.8kbits/s speed=0.0152x elapsed=0:02:17.96    \nframe=  128 fps=0.9 q=45.0 size=     256KiB time=00:00:02.10 bitrate= 998.8kbits/s speed=0.0152x elapsed=0:02:18.53    \nframe=  129 fps=0.9 q=39.1 size=     256KiB time=00:00:02.11 bitrate= 990.9kbits/s speed=0.0152x elapsed=0:02:19.09    \nframe=  130 fps=0.9 q=43.9 size=     256KiB time=00:00:02.11 bitrate= 990.9kbits/s speed=0.0152x elapsed=0:02:19.65    \nframe=  130 fps=0.9 q=43.9 size=     256KiB time=00:00:02.13 bitrate= 983.2kbits/s speed=0.0152x elapsed=0:02:20.29    \nframe=  130 fps=0.9 q=43.9 size=     256KiB time=00:00:02.13 bitrate= 983.2kbits/s speed=0.0151x elapsed=0:02:20.85    \nframe=  130 fps=0.9 q=43.9 size=     256KiB time=00:00:02.13 bitrate= 983.2kbits/s speed=0.0151x elapsed=0:02:21.38    \nframe=  130 fps=0.9 q=43.9 size=     256KiB time=00:00:02.13 bitrate= 983.2kbits/s speed=0.015x elapsed=0:02:21.91    \nframe=  130 fps=0.9 q=43.9 size=     256KiB time=00:00:02.13 bitrate= 983.2kbits/s speed=0.015x elapsed=0:02:22.45    \nframe=  130 fps=0.9 q=43.9 size=     256KiB time=00:00:02.13 bitrate= 983.2kbits/s speed=0.0149x elapsed=0:02:23.09    \nframe=  131 fps=0.9 q=45.0 size=     256KiB time=00:00:02.15 bitrate= 975.6kbits/s speed=0.015x elapsed=0:02:23.76    \nframe=  132 fps=0.9 q=45.0 size=     256KiB time=00:00:02.16 bitrate= 968.1kbits/s speed=0.015x elapsed=0:02:24.31    \nframe=  132 fps=0.9 q=45.0 size=     256KiB time=00:00:02.16 bitrate= 968.1kbits/s speed=0.015x elapsed=0:02:24.84    \nframe=  132 fps=0.9 q=45.0 size=     256KiB time=00:00:02.16 bitrate= 968.1kbits/s speed=0.0149x elapsed=0:02:25.45    \nframe=  132 fps=0.9 q=45.0 size=     256KiB time=00:00:02.16 bitrate= 968.1kbits/s speed=0.0148x elapsed=0:02:26.09    \nframe=  133 fps=0.9 q=39.0 size=     256KiB time=00:00:02.18 bitrate= 960.7kbits/s speed=0.0149x elapsed=0:02:26.61    \nframe=  133 fps=0.9 q=39.0 size=     256KiB time=00:00:02.18 bitrate= 960.7kbits/s speed=0.0148x elapsed=0:02:27.18    \nframe=  133 fps=0.9 q=39.0 size=     256KiB time=00:00:02.18 bitrate= 960.7kbits/s speed=0.0148x elapsed=0:02:27.75    \nframe=  133 fps=0.9 q=39.0 size=     256KiB time=00:00:02.18 bitrate= 960.7kbits/s speed=0.0147x elapsed=0:02:28.34    \nframe=  134 fps=0.9 q=43.7 size=     256KiB time=00:00:02.20 bitrate= 953.4kbits/s speed=0.0148x elapsed=0:02:28.93    \nframe=  134 fps=0.9 q=43.7 size=     256KiB time=00:00:02.20 bitrate= 953.4kbits/s speed=0.0147x elapsed=0:02:29.46    \nframe=  135 fps=0.9 q=45.0 size=     256KiB time=00:00:02.21 bitrate= 946.2kbits/s speed=0.0148x elapsed=0:02:30.00    \nframe=  135 fps=0.9 q=45.0 size=     256KiB time=00:00:02.21 bitrate= 946.2kbits/s speed=0.0147x elapsed=0:02:30.56    \nframe=  135 fps=0.9 q=45.0 size=     256KiB time=00:00:02.21 bitrate= 946.2kbits/s speed=0.0147x elapsed=0:02:31.15    \nframe=  135 fps=0.9 q=45.0 size=     256KiB time=00:00:02.21 bitrate= 946.2kbits/s speed=0.0146x elapsed=0:02:31.71    \nframe=  135 fps=0.9 q=45.0 size=     256KiB time=00:00:02.21 bitrate= 946.2kbits/s speed=0.0146x elapsed=0:02:32.23    \nframe=  135 fps=0.9 q=45.0 size=     256KiB time=00:00:02.21 bitrate= 946.2kbits/s speed=0.0145x elapsed=0:02:32.79    \nframe=  135 fps=0.9 q=45.0 size=     256KiB time=00:00:02.21 bitrate= 946.2kbits/s speed=0.0145x elapsed=0:02:33.32    \nframe=  135 fps=0.9 q=45.0 size=     256KiB time=00:00:02.21 bitrate= 946.2kbits/s speed=0.0144x elapsed=0:02:33.87    \nframe=  135 fps=0.9 q=45.0 size=     256KiB time=00:00:02.21 bitrate= 946.2kbits/s speed=0.0144x elapsed=0:02:34.41    \nframe=  135 fps=0.9 q=45.0 size=     256KiB time=00:00:02.21 bitrate= 946.2kbits/s speed=0.0143x elapsed=0:02:34.95    \nframe=  136 fps=0.9 q=38.9 size=     256KiB time=00:00:02.23 bitrate= 939.2kbits/s speed=0.0144x elapsed=0:02:35.51    \nframe=  137 fps=0.9 q=43.9 size=     512KiB time=00:00:02.25 bitrate=1864.3kbits/s speed=0.0144x elapsed=0:02:36.09    \nframe=  137 fps=0.9 q=43.9 size=     512KiB time=00:00:02.25 bitrate=1864.3kbits/s speed=0.0144x elapsed=0:02:36.62    \nframe=  137 fps=0.9 q=43.9 size=     512KiB time=00:00:02.25 bitrate=1864.3kbits/s speed=0.0143x elapsed=0:02:37.16    \nframe=  137 fps=0.9 q=43.9 size=     512KiB time=00:00:02.25 bitrate=1864.3kbits/s speed=0.0143x elapsed=0:02:37.70    \nframe=  138 fps=0.9 q=45.0 size=     512KiB time=00:00:02.26 bitrate=1850.6kbits/s speed=0.0143x elapsed=0:02:38.23    \nframe=  138 fps=0.9 q=45.0 size=     512KiB time=00:00:02.26 bitrate=1850.6kbits/s speed=0.0143x elapsed=0:02:38.79    \nframe=  138 fps=0.9 q=45.0 size=     512KiB time=00:00:02.26 bitrate=1850.6kbits/s speed=0.0142x elapsed=0:02:39.30    \nframe=  140 fps=0.9 q=39.1 size=     512KiB time=00:00:02.30 bitrate=1823.8kbits/s speed=0.0144x elapsed=0:02:39.84    \nframe=  141 fps=0.9 q=44.2 size=     512KiB time=00:00:02.31 bitrate=1810.6kbits/s speed=0.0144x elapsed=0:02:40.37    \nframe=  141 fps=0.9 q=44.2 size=     512KiB time=00:00:02.31 bitrate=1810.6kbits/s speed=0.0144x elapsed=0:02:40.91    \nframe=  142 fps=0.9 q=45.1 size=     512KiB time=00:00:02.33 bitrate=1797.7kbits/s speed=0.0144x elapsed=0:02:41.49    \nframe=  142 fps=0.9 q=45.1 size=     512KiB time=00:00:02.33 bitrate=1797.7kbits/s speed=0.0144x elapsed=0:02:42.07    \nframe=  143 fps=0.9 q=45.0 size=     512KiB time=00:00:02.35 bitrate=1785.0kbits/s speed=0.0145x elapsed=0:02:42.61    \nframe=  144 fps=0.9 q=39.0 size=     512KiB time=00:00:02.36 bitrate=1772.4kbits/s speed=0.0145x elapsed=0:02:43.16    \nframe=  144 fps=0.9 q=39.0 size=     512KiB time=00:00:02.36 bitrate=1772.4kbits/s speed=0.0145x elapsed=0:02:43.74    \nframe=  145 fps=0.9 q=44.2 size=     512KiB time=00:00:02.38 bitrate=1760.0kbits/s speed=0.0145x elapsed=0:02:44.29    \nframe=  145 fps=0.9 q=44.2 size=     512KiB time=00:00:02.38 bitrate=1760.0kbits/s speed=0.0145x elapsed=0:02:44.83    \nframe=  145 fps=0.9 q=44.2 size=     512KiB time=00:00:02.38 bitrate=1760.0kbits/s speed=0.0144x elapsed=0:02:45.36    \nframe=  145 fps=0.9 q=44.2 size=     512KiB time=00:00:02.38 bitrate=1760.0kbits/s speed=0.0144x elapsed=0:02:45.90    \nframe=  145 fps=0.9 q=44.2 size=     512KiB time=00:00:02.38 bitrate=1760.0kbits/s speed=0.0143x elapsed=0:02:46.48    \nframe=  146 fps=0.9 q=45.0 size=     512KiB time=00:00:02.40 bitrate=1747.8kbits/s speed=0.0144x elapsed=0:02:47.06    \nframe=  146 fps=0.9 q=45.0 size=     512KiB time=00:00:02.40 bitrate=1747.8kbits/s speed=0.0143x elapsed=0:02:47.67    \nframe=  147 fps=0.9 q=44.0 size=     512KiB time=00:00:02.41 bitrate=1735.7kbits/s speed=0.0144x elapsed=0:02:48.21    \nframe=  148 fps=0.9 q=38.7 size=     512KiB time=00:00:02.41 bitrate=1735.7kbits/s speed=0.0143x elapsed=0:02:48.75    \nframe=  148 fps=0.9 q=38.7 size=     512KiB time=00:00:02.43 bitrate=1723.8kbits/s speed=0.0144x elapsed=0:02:49.28    \nframe=  148 fps=0.9 q=38.7 size=     512KiB time=00:00:02.43 bitrate=1723.8kbits/s speed=0.0143x elapsed=0:02:49.85    \nframe=  148 fps=0.9 q=38.7 size=     512KiB time=00:00:02.43 bitrate=1723.8kbits/s speed=0.0143x elapsed=0:02:50.38    \nframe=  148 fps=0.9 q=38.7 size=     512KiB time=00:00:02.43 bitrate=1723.8kbits/s speed=0.0142x elapsed=0:02:50.96    \nframe=  148 fps=0.9 q=38.7 size=     512KiB time=00:00:02.43 bitrate=1723.8kbits/s speed=0.0142x elapsed=0:02:51.53    \nframe=  148 fps=0.9 q=38.7 size=     512KiB time=00:00:02.43 bitrate=1723.8kbits/s speed=0.0141x elapsed=0:02:52.09    \nframe=  148 fps=0.9 q=38.7 size=     512KiB time=00:00:02.43 bitrate=1723.8kbits/s speed=0.0141x elapsed=0:02:52.61    \nframe=  148 fps=0.9 q=38.7 size=     512KiB time=00:00:02.43 bitrate=1723.8kbits/s speed=0.0141x elapsed=0:02:53.17    \nframe=  148 fps=0.9 q=38.7 size=     512KiB time=00:00:02.43 bitrate=1723.8kbits/s speed=0.014x elapsed=0:02:53.76    \nframe=  148 fps=0.8 q=38.7 size=     512KiB time=00:00:02.43 bitrate=1723.8kbits/s speed=0.014x elapsed=0:02:54.43    \nframe=  149 fps=0.9 q=43.5 size=     512KiB time=00:00:02.45 bitrate=1712.1kbits/s speed=0.014x elapsed=0:02:55.02    \nframe=  149 fps=0.8 q=43.5 size=     512KiB time=00:00:02.45 bitrate=1712.1kbits/s speed=0.0139x elapsed=0:02:55.66    \nframe=  149 fps=0.8 q=43.5 size=     512KiB time=00:00:02.45 bitrate=1712.1kbits/s speed=0.0139x elapsed=0:02:56.29    \nframe=  149 fps=0.8 q=43.5 size=     512KiB time=00:00:02.45 bitrate=1712.1kbits/s speed=0.0139x elapsed=0:02:56.89    \nframe=  149 fps=0.8 q=43.5 size=     512KiB time=00:00:02.45 bitrate=1712.1kbits/s speed=0.0138x elapsed=0:02:57.55    \nframe=  149 fps=0.8 q=43.5 size=     512KiB time=00:00:02.45 bitrate=1712.1kbits/s speed=0.0138x elapsed=0:02:58.10    \nframe=  149 fps=0.8 q=43.5 size=     512KiB time=00:00:02.45 bitrate=1712.1kbits/s speed=0.0137x elapsed=0:02:58.65    \nframe=  150 fps=0.8 q=45.0 size=     512KiB time=00:00:02.46 bitrate=1700.5kbits/s speed=0.0138x elapsed=0:02:59.19    \nframe=  150 fps=0.8 q=45.0 size=     512KiB time=00:00:02.46 bitrate=1700.5kbits/s speed=0.0137x elapsed=0:02:59.73    \nframe=  150 fps=0.8 q=45.0 size=     512KiB time=00:00:02.46 bitrate=1700.5kbits/s speed=0.0137x elapsed=0:03:00.28    \nframe=  150 fps=0.8 q=45.0 size=     512KiB time=00:00:02.46 bitrate=1700.5kbits/s speed=0.0136x elapsed=0:03:00.83    \nframe=  151 fps=0.8 q=39.0 size=     512KiB time=00:00:02.48 bitrate=1689.1kbits/s speed=0.0137x elapsed=0:03:01.41    \nframe=  152 fps=0.8 q=43.2 size=     512KiB time=00:00:02.50 bitrate=1677.9kbits/s speed=0.0137x elapsed=0:03:01.95    \nframe=  152 fps=0.8 q=43.2 size=     512KiB time=00:00:02.50 bitrate=1677.9kbits/s speed=0.0137x elapsed=0:03:02.55    \nframe=  153 fps=0.8 q=44.1 size=     512KiB time=00:00:02.51 bitrate=1666.8kbits/s speed=0.0137x elapsed=0:03:03.09    \nframe=  154 fps=0.8 q=44.0 size=     512KiB time=00:00:02.53 bitrate=1655.8kbits/s speed=0.0138x elapsed=0:03:03.60    \nframe=  154 fps=0.8 q=44.0 size=     512KiB time=00:00:02.53 bitrate=1655.8kbits/s speed=0.0138x elapsed=0:03:04.15    \nframe=  154 fps=0.8 q=44.0 size=     512KiB time=00:00:02.53 bitrate=1655.8kbits/s speed=0.0137x elapsed=0:03:04.69    \nframe=  154 fps=0.8 q=44.0 size=     512KiB time=00:00:02.53 bitrate=1655.8kbits/s speed=0.0137x elapsed=0:03:05.19    \nframe=  155 fps=0.8 q=38.9 size=     512KiB time=00:00:02.55 bitrate=1645.0kbits/s speed=0.0137x elapsed=0:03:05.73    \nframe=  156 fps=0.8 q=44.3 size=     512KiB time=00:00:02.56 bitrate=1634.3kbits/s speed=0.0138x elapsed=0:03:06.27    \nframe=  156 fps=0.8 q=44.3 size=     512KiB time=00:00:02.56 bitrate=1634.3kbits/s speed=0.0137x elapsed=0:03:06.83    \nframe=  158 fps=0.8 q=45.0 size=     512KiB time=00:00:02.60 bitrate=1613.3kbits/s speed=0.0139x elapsed=0:03:07.37    \nframe=  159 fps=0.8 q=38.7 size=     512KiB time=00:00:02.61 bitrate=1603.1kbits/s speed=0.0139x elapsed=0:03:07.91    \nframe=  159 fps=0.8 q=38.7 size=     512KiB time=00:00:02.61 bitrate=1603.1kbits/s speed=0.0139x elapsed=0:03:08.45    \nframe=  159 fps=0.8 q=38.7 size=     512KiB time=00:00:02.61 bitrate=1603.1kbits/s speed=0.0138x elapsed=0:03:08.99    \nframe=  160 fps=0.8 q=43.8 size=     512KiB time=00:00:02.63 bitrate=1592.9kbits/s speed=0.0139x elapsed=0:03:09.52    \nframe=  160 fps=0.8 q=43.8 size=     512KiB time=00:00:02.63 bitrate=1592.9kbits/s speed=0.0139x elapsed=0:03:10.07    \nframe=  161 fps=0.8 q=45.0 size=     512KiB time=00:00:02.65 bitrate=1582.9kbits/s speed=0.0139x elapsed=0:03:10.60    \nframe=  161 fps=0.8 q=45.0 size=     512KiB time=00:00:02.65 bitrate=1582.9kbits/s speed=0.0139x elapsed=0:03:11.11    \nframe=  162 fps=0.8 q=45.0 size=     512KiB time=00:00:02.66 bitrate=1573.0kbits/s speed=0.0139x elapsed=0:03:11.63    \nframe=  162 fps=0.8 q=45.0 size=     512KiB time=00:00:02.66 bitrate=1573.0kbits/s speed=0.0139x elapsed=0:03:12.17    \nframe=  162 fps=0.8 q=45.0 size=     512KiB time=00:00:02.66 bitrate=1573.0kbits/s speed=0.0138x elapsed=0:03:12.72    \nframe=  163 fps=0.8 q=38.6 size=     512KiB time=00:00:02.68 bitrate=1563.2kbits/s speed=0.0139x elapsed=0:03:13.23    \nframe=  163 fps=0.8 q=38.6 size=     512KiB time=00:00:02.68 bitrate=1563.2kbits/s speed=0.0138x elapsed=0:03:13.76    \nframe=  163 fps=0.8 q=38.6 size=     512KiB time=00:00:02.68 bitrate=1563.2kbits/s speed=0.0138x elapsed=0:03:14.29    \nframe=  163 fps=0.8 q=38.6 size=     512KiB time=00:00:02.68 bitrate=1563.2kbits/s speed=0.0138x elapsed=0:03:14.84    \nframe=  163 fps=0.8 q=38.6 size=     512KiB time=00:00:02.68 bitrate=1563.2kbits/s speed=0.0137x elapsed=0:03:15.37    \nframe=  164 fps=0.8 q=43.6 size=     512KiB time=00:00:02.70 bitrate=1553.6kbits/s speed=0.0138x elapsed=0:03:15.90    \nframe=  165 fps=0.8 q=45.0 size=     512KiB time=00:00:02.71 bitrate=1544.0kbits/s speed=0.0138x elapsed=0:03:16.43    \nframe=  166 fps=0.8 q=38.6 size=     512KiB time=00:00:02.73 bitrate=1534.6kbits/s speed=0.0139x elapsed=0:03:16.96    \nframe=  166 fps=0.8 q=38.6 size=     512KiB time=00:00:02.73 bitrate=1534.6kbits/s speed=0.0138x elapsed=0:03:17.49    \nframe=  167 fps=0.8 q=43.0 size=     512KiB time=00:00:02.75 bitrate=1525.3kbits/s speed=0.0139x elapsed=0:03:18.01    \nframe=  168 fps=0.8 q=44.0 size=     512KiB time=00:00:02.75 bitrate=1525.3kbits/s speed=0.0139x elapsed=0:03:18.55    \nframe=  168 fps=0.8 q=44.0 size=     512KiB time=00:00:02.76 bitrate=1516.1kbits/s speed=0.0139x elapsed=0:03:19.10    \nframe=  168 fps=0.8 q=44.0 size=     512KiB time=00:00:02.76 bitrate=1516.1kbits/s speed=0.0139x elapsed=0:03:19.62    \nframe=  168 fps=0.8 q=44.0 size=     512KiB time=00:00:02.76 bitrate=1516.1kbits/s speed=0.0138x elapsed=0:03:20.13    \nframe=  169 fps=0.8 q=45.0 size=     512KiB time=00:00:02.78 bitrate=1507.1kbits/s speed=0.0139x elapsed=0:03:20.66    \nframe=  170 fps=0.8 q=38.8 size=     512KiB time=00:00:02.80 bitrate=1498.1kbits/s speed=0.0139x elapsed=0:03:21.22    \nframe=  170 fps=0.8 q=38.8 size=     512KiB time=00:00:02.80 bitrate=1498.1kbits/s speed=0.0139x elapsed=0:03:21.77    \nframe=  171 fps=0.8 q=44.4 size=     512KiB time=00:00:02.81 bitrate=1489.2kbits/s speed=0.0139x elapsed=0:03:22.30    \nframe=  171 fps=0.8 q=44.4 size=     512KiB time=00:00:02.81 bitrate=1489.2kbits/s speed=0.0139x elapsed=0:03:22.83    \nframe=  171 fps=0.8 q=44.4 size=     512KiB time=00:00:02.81 bitrate=1489.2kbits/s speed=0.0138x elapsed=0:03:23.38    \nframe=  172 fps=0.8 q=45.0 size=     512KiB time=00:00:02.83 bitrate=1480.5kbits/s speed=0.0139x elapsed=0:03:23.93    \nframe=  173 fps=0.8 q=45.0 size=     512KiB time=00:00:02.85 bitrate=1471.8kbits/s speed=0.0139x elapsed=0:03:24.46    \nframe=  174 fps=0.8 q=38.7 size=     512KiB time=00:00:02.86 bitrate=1463.3kbits/s speed=0.014x elapsed=0:03:24.99    \nframe=  174 fps=0.8 q=38.7 size=     512KiB time=00:00:02.86 bitrate=1463.3kbits/s speed=0.0139x elapsed=0:03:25.52    \nframe=  174 fps=0.8 q=38.7 size=     512KiB time=00:00:02.86 bitrate=1463.3kbits/s speed=0.0139x elapsed=0:03:26.06    \nframe=  174 fps=0.8 q=38.7 size=     512KiB time=00:00:02.86 bitrate=1463.3kbits/s speed=0.0139x elapsed=0:03:26.57    \nframe=  176 fps=0.8 q=45.0 size=     512KiB time=00:00:02.88 bitrate=1454.8kbits/s speed=0.0139x elapsed=0:03:27.10    \nframe=  177 fps=0.9 q=38.8 size=     512KiB time=00:00:02.91 bitrate=1438.2kbits/s speed=0.014x elapsed=0:03:27.65    \nframe=  177 fps=0.9 q=38.8 size=     512KiB time=00:00:02.91 bitrate=1438.2kbits/s speed=0.014x elapsed=0:03:28.18    \nframe=  177 fps=0.8 q=38.8 size=     512KiB time=00:00:02.91 bitrate=1438.2kbits/s speed=0.014x elapsed=0:03:28.71    \nframe=  177 fps=0.8 q=38.8 size=     512KiB time=00:00:02.91 bitrate=1438.2kbits/s speed=0.0139x elapsed=0:03:29.27    \nframe=  178 fps=0.8 q=43.2 size=     512KiB time=00:00:02.93 bitrate=1430.0kbits/s speed=0.014x elapsed=0:03:29.81    \nframe=  178 fps=0.8 q=43.2 size=     512KiB time=00:00:02.93 bitrate=1430.0kbits/s speed=0.0139x elapsed=0:03:30.35    \nframe=  180 fps=0.9 q=44.0 size=     512KiB time=00:00:02.96 bitrate=1413.9kbits/s speed=0.0141x elapsed=0:03:30.89    \nframe=  180 fps=0.9 q=44.0 size=     512KiB time=00:00:02.96 bitrate=1413.9kbits/s speed=0.014x elapsed=0:03:31.42    \nframe=  180 fps=0.8 q=44.0 size=     512KiB time=00:00:02.96 bitrate=1413.9kbits/s speed=0.014x elapsed=0:03:31.93    \nframe=  180 fps=0.8 q=44.0 size=     512KiB time=00:00:02.96 bitrate=1413.9kbits/s speed=0.014x elapsed=0:03:32.46    \nframe=  180 fps=0.8 q=44.0 size=     512KiB time=00:00:02.96 bitrate=1413.9kbits/s speed=0.0139x elapsed=0:03:32.99    \nframe=  181 fps=0.8 q=38.8 size=     512KiB time=00:00:02.98 bitrate=1406.0kbits/s speed=0.014x elapsed=0:03:33.51    \nframe=  182 fps=0.9 q=43.2 size=     512KiB time=00:00:03.00 bitrate=1398.2kbits/s speed=0.014x elapsed=0:03:34.04    \nframe=  184 fps=0.9 q=44.0 size=     512KiB time=00:00:03.01 bitrate=1390.5kbits/s speed=0.0141x elapsed=0:03:34.56    \nframe=  184 fps=0.9 q=44.0 size=     512KiB time=00:00:03.03 bitrate=1382.9kbits/s speed=0.0141x elapsed=0:03:35.09    \nframe=  184 fps=0.9 q=44.0 size=     512KiB time=00:00:03.03 bitrate=1382.9kbits/s speed=0.0141x elapsed=0:03:35.62    \nframe=  185 fps=0.9 q=39.1 size=     512KiB time=00:00:03.05 bitrate=1375.3kbits/s speed=0.0141x elapsed=0:03:36.13    \nframe=  186 fps=0.9 q=43.4 size=     512KiB time=00:00:03.06 bitrate=1367.8kbits/s speed=0.0142x elapsed=0:03:36.65    \nframe=  186 fps=0.9 q=43.4 size=     512KiB time=00:00:03.06 bitrate=1367.8kbits/s speed=0.0141x elapsed=0:03:37.17    \nframe=  187 fps=0.9 q=45.0 size=     512KiB time=00:00:03.08 bitrate=1360.4kbits/s speed=0.0142x elapsed=0:03:37.69    \nframe=  188 fps=0.9 q=45.0 size=     512KiB time=00:00:03.10 bitrate=1353.1kbits/s speed=0.0142x elapsed=0:03:38.22    \nframe=  188 fps=0.9 q=45.0 size=     512KiB time=00:00:03.10 bitrate=1353.1kbits/s speed=0.0142x elapsed=0:03:38.75    \nframe=  189 fps=0.9 q=38.6 size=     512KiB time=00:00:03.11 bitrate=1345.9kbits/s speed=0.0142x elapsed=0:03:39.27    \nframe=  189 fps=0.9 q=38.6 size=     512KiB time=00:00:03.11 bitrate=1345.9kbits/s speed=0.0142x elapsed=0:03:39.79    \nframe=  189 fps=0.9 q=38.6 size=     512KiB time=00:00:03.11 bitrate=1345.9kbits/s speed=0.0141x elapsed=0:03:40.31    \nframe=  189 fps=0.9 q=38.6 size=     512KiB time=00:00:03.11 bitrate=1345.9kbits/s speed=0.0141x elapsed=0:03:40.83    \nframe=  190 fps=0.9 q=43.8 size=     512KiB time=00:00:03.13 bitrate=1338.7kbits/s speed=0.0142x elapsed=0:03:41.35    \nframe=  190 fps=0.9 q=43.8 size=     512KiB time=00:00:03.13 bitrate=1338.7kbits/s speed=0.0141x elapsed=0:03:41.87    \nframe=  192 fps=0.9 q=39.0 size=     512KiB time=00:00:03.16 bitrate=1324.6kbits/s speed=0.0142x elapsed=0:03:42.39    \nframe=  192 fps=0.9 q=39.0 size=     512KiB time=00:00:03.16 bitrate=1324.6kbits/s speed=0.0142x elapsed=0:03:42.92    \nframe=  192 fps=0.9 q=39.0 size=     512KiB time=00:00:03.16 bitrate=1324.6kbits/s speed=0.0142x elapsed=0:03:43.45    \nframe=  193 fps=0.9 q=43.4 size=     512KiB time=00:00:03.18 bitrate=1317.7kbits/s speed=0.0142x elapsed=0:03:43.98    \nframe=  193 fps=0.9 q=43.4 size=     512KiB time=00:00:03.18 bitrate=1317.7kbits/s speed=0.0142x elapsed=0:03:44.49    \nframe=  194 fps=0.9 q=45.0 size=     512KiB time=00:00:03.20 bitrate=1310.8kbits/s speed=0.0142x elapsed=0:03:45.01    \nframe=  195 fps=0.9 q=44.0 size=     512KiB time=00:00:03.21 bitrate=1304.0kbits/s speed=0.0143x elapsed=0:03:45.53    \nframe=  195 fps=0.9 q=44.0 size=     512KiB time=00:00:03.21 bitrate=1304.0kbits/s speed=0.0142x elapsed=0:03:46.08    \nframe=  195 fps=0.9 q=44.0 size=     512KiB time=00:00:03.21 bitrate=1304.0kbits/s speed=0.0142x elapsed=0:03:46.64    \nframe=  195 fps=0.9 q=44.0 size=     512KiB time=00:00:03.21 bitrate=1304.0kbits/s speed=0.0142x elapsed=0:03:47.20    \nframe=  196 fps=0.9 q=38.7 size=     512KiB time=00:00:03.23 bitrate=1297.3kbits/s speed=0.0142x elapsed=0:03:47.74    \nframe=  197 fps=0.9 q=43.7 size=     512KiB time=00:00:03.25 bitrate=1290.7kbits/s speed=0.0142x elapsed=0:03:48.26    \nframe=  197 fps=0.9 q=43.7 size=     512KiB time=00:00:03.25 bitrate=1290.7kbits/s speed=0.0142x elapsed=0:03:48.78    \nframe=  198 fps=0.9 q=45.0 size=     768KiB time=00:00:03.26 bitrate=1926.1kbits/s speed=0.0142x elapsed=0:03:49.28    \nframe=  199 fps=0.9 q=45.0 size=     768KiB time=00:00:03.28 bitrate=1916.3kbits/s speed=0.0143x elapsed=0:03:49.81    \nframe=  200 fps=0.9 q=38.7 size=     768KiB time=00:00:03.30 bitrate=1906.6kbits/s speed=0.0143x elapsed=0:03:50.34    \nframe=  201 fps=0.9 q=43.7 size=     768KiB time=00:00:03.31 bitrate=1897.0kbits/s speed=0.0144x elapsed=0:03:50.87    \nframe=  201 fps=0.9 q=43.7 size=     768KiB time=00:00:03.31 bitrate=1897.0kbits/s speed=0.0143x elapsed=0:03:51.39    \nframe=  203 fps=0.9 q=44.1 size=     768KiB time=00:00:03.35 bitrate=1878.2kbits/s speed=0.0144x elapsed=0:03:51.91    \nframe=  203 fps=0.9 q=44.1 size=     768KiB time=00:00:03.35 bitrate=1878.2kbits/s speed=0.0144x elapsed=0:03:52.43    \nframe=  203 fps=0.9 q=44.1 size=     768KiB time=00:00:03.35 bitrate=1878.2kbits/s speed=0.0144x elapsed=0:03:52.98    \nframe=  203 fps=0.9 q=44.1 size=     768KiB time=00:00:03.35 bitrate=1878.2kbits/s speed=0.0143x elapsed=0:03:53.50    \nframe=  205 fps=0.9 q=43.4 size=     768KiB time=00:00:03.38 bitrate=1859.6kbits/s speed=0.0145x elapsed=0:03:54.03    \nframe=  205 fps=0.9 q=43.4 size=     768KiB time=00:00:03.38 bitrate=1859.6kbits/s speed=0.0144x elapsed=0:03:54.57    \nframe=  205 fps=0.9 q=43.4 size=     768KiB time=00:00:03.38 bitrate=1859.6kbits/s speed=0.0144x elapsed=0:03:55.11    \nframe=  206 fps=0.9 q=45.0 size=     768KiB time=00:00:03.40 bitrate=1850.5kbits/s speed=0.0144x elapsed=0:03:55.63    \nframe=  207 fps=0.9 q=45.0 size=     768KiB time=00:00:03.41 bitrate=1841.5kbits/s speed=0.0145x elapsed=0:03:56.15    \nframe=  207 fps=0.9 q=45.0 size=     768KiB time=00:00:03.41 bitrate=1841.5kbits/s speed=0.0144x elapsed=0:03:56.67    \nframe=  208 fps=0.9 q=38.7 size=     768KiB time=00:00:03.43 bitrate=1832.6kbits/s speed=0.0145x elapsed=0:03:57.21    \nframe=  209 fps=0.9 q=43.5 size=     768KiB time=00:00:03.45 bitrate=1823.7kbits/s speed=0.0145x elapsed=0:03:57.73    \nframe=  209 fps=0.9 q=43.5 size=     768KiB time=00:00:03.45 bitrate=1823.7kbits/s speed=0.0145x elapsed=0:03:58.25    \nframe=  209 fps=0.9 q=43.5 size=     768KiB time=00:00:03.45 bitrate=1823.7kbits/s speed=0.0144x elapsed=0:03:58.80    \nframe=  209 fps=0.9 q=43.5 size=     768KiB time=00:00:03.45 bitrate=1823.7kbits/s speed=0.0144x elapsed=0:03:59.33    \nframe=  210 fps=0.9 q=45.0 size=     768KiB time=00:00:03.46 bitrate=1814.9kbits/s speed=0.0145x elapsed=0:03:59.84    \nframe=  211 fps=0.9 q=44.1 size=     768KiB time=00:00:03.48 bitrate=1806.3kbits/s speed=0.0145x elapsed=0:04:00.36    \nframe=  211 fps=0.9 q=44.1 size=     768KiB time=00:00:03.48 bitrate=1806.3kbits/s speed=0.0145x elapsed=0:04:00.89    \nframe=  211 fps=0.9 q=44.1 size=     768KiB time=00:00:03.48 bitrate=1806.3kbits/s speed=0.0144x elapsed=0:04:01.44    \nframe=  212 fps=0.9 q=38.3 size=     768KiB time=00:00:03.50 bitrate=1797.7kbits/s speed=0.0145x elapsed=0:04:01.96    \nframe=  212 fps=0.9 q=38.3 size=     768KiB time=00:00:03.50 bitrate=1797.7kbits/s speed=0.0144x elapsed=0:04:02.48    \nframe=  213 fps=0.9 q=45.0 size=     768KiB time=00:00:03.51 bitrate=1789.1kbits/s speed=0.0145x elapsed=0:04:03.02    \nframe=  213 fps=0.9 q=45.0 size=     768KiB time=00:00:03.51 bitrate=1789.1kbits/s speed=0.0144x elapsed=0:04:03.55    \nframe=  215 fps=0.9 q=42.8 size=     768KiB time=00:00:03.55 bitrate=1772.3kbits/s speed=0.0145x elapsed=0:04:04.09    \nframe=  215 fps=0.9 q=42.8 size=     768KiB time=00:00:03.55 bitrate=1772.3kbits/s speed=0.0145x elapsed=0:04:04.66    \nframe=  215 fps=0.9 q=42.8 size=     768KiB time=00:00:03.55 bitrate=1772.3kbits/s speed=0.0145x elapsed=0:04:05.19    \nframe=  216 fps=0.9 q=44.0 size=     768KiB time=00:00:03.56 bitrate=1764.1kbits/s speed=0.0145x elapsed=0:04:05.72    \nframe=  216 fps=0.9 q=44.0 size=     768KiB time=00:00:03.56 bitrate=1764.1kbits/s speed=0.0145x elapsed=0:04:06.30    \nframe=  216 fps=0.9 q=44.0 size=     768KiB time=00:00:03.56 bitrate=1764.1kbits/s speed=0.0144x elapsed=0:04:06.87    \nframe=  216 fps=0.9 q=44.0 size=     768KiB time=00:00:03.56 bitrate=1764.1kbits/s speed=0.0144x elapsed=0:04:07.49    \nframe=  216 fps=0.9 q=44.0 size=     768KiB time=00:00:03.56 bitrate=1764.1kbits/s speed=0.0144x elapsed=0:04:08.11    \nframe=  216 fps=0.9 q=44.0 size=     768KiB time=00:00:03.56 bitrate=1764.1kbits/s speed=0.0143x elapsed=0:04:08.77    \nframe=  216 fps=0.9 q=44.0 size=     768KiB time=00:00:03.56 bitrate=1764.1kbits/s speed=0.0143x elapsed=0:04:09.42    \nframe=  216 fps=0.9 q=44.0 size=     768KiB time=00:00:03.56 bitrate=1764.1kbits/s speed=0.0143x elapsed=0:04:10.11    \nframe=  216 fps=0.9 q=44.0 size=     768KiB time=00:00:03.56 bitrate=1764.1kbits/s speed=0.0142x elapsed=0:04:10.71    \nframe=  216 fps=0.9 q=44.0 size=     768KiB time=00:00:03.56 bitrate=1764.1kbits/s speed=0.0142x elapsed=0:04:11.31    \nframe=  216 fps=0.9 q=44.0 size=     768KiB time=00:00:03.56 bitrate=1764.1kbits/s speed=0.0142x elapsed=0:04:11.90    \nframe=  216 fps=0.9 q=44.0 size=     768KiB time=00:00:03.56 bitrate=1764.1kbits/s speed=0.0141x elapsed=0:04:12.55    \nframe=  217 fps=0.9 q=44.0 size=     768KiB time=00:00:03.58 bitrate=1755.9kbits/s speed=0.0142x elapsed=0:04:13.13    \nframe=  218 fps=0.9 q=38.3 size=     768KiB time=00:00:03.60 bitrate=1747.7kbits/s speed=0.0142x elapsed=0:04:13.72    \nframe=  219 fps=0.9 q=43.5 size=     768KiB time=00:00:03.61 bitrate=1739.7kbits/s speed=0.0142x elapsed=0:04:14.23    \nframe=  219 fps=0.9 q=43.5 size=     768KiB time=00:00:03.61 bitrate=1739.7kbits/s speed=0.0142x elapsed=0:04:14.78    \nframe=  219 fps=0.9 q=43.5 size=     768KiB time=00:00:03.61 bitrate=1739.7kbits/s speed=0.0142x elapsed=0:04:15.33    \nframe=  221 fps=0.9 q=44.1 size=     768KiB time=00:00:03.65 bitrate=1723.8kbits/s speed=0.0143x elapsed=0:04:15.91    \nframe=  221 fps=0.9 q=44.1 size=     768KiB time=00:00:03.65 bitrate=1723.8kbits/s speed=0.0142x elapsed=0:04:16.46    \nframe=  221 fps=0.9 q=44.1 size=     768KiB time=00:00:03.65 bitrate=1723.8kbits/s speed=0.0142x elapsed=0:04:17.02    \nframe=  221 fps=0.9 q=44.1 size=     768KiB time=00:00:03.65 bitrate=1723.8kbits/s speed=0.0142x elapsed=0:04:17.56    \nframe=  222 fps=0.9 q=38.4 size=     768KiB time=00:00:03.66 bitrate=1715.9kbits/s speed=0.0142x elapsed=0:04:18.10    \nframe=  222 fps=0.9 q=38.4 size=     768KiB time=00:00:03.66 bitrate=1715.9kbits/s speed=0.0142x elapsed=0:04:18.63    \nframe=  222 fps=0.9 q=38.4 size=     768KiB time=00:00:03.66 bitrate=1715.9kbits/s speed=0.0141x elapsed=0:04:19.15    \nframe=  223 fps=0.9 q=43.6 size=     768KiB time=00:00:03.68 bitrate=1708.2kbits/s speed=0.0142x elapsed=0:04:19.66    \nframe=  223 fps=0.9 q=43.6 size=     768KiB time=00:00:03.68 bitrate=1708.2kbits/s speed=0.0142x elapsed=0:04:20.17    \nframe=  224 fps=0.9 q=44.1 size=     768KiB time=00:00:03.70 bitrate=1700.5kbits/s speed=0.0142x elapsed=0:04:20.73    \nframe=  225 fps=0.9 q=44.0 size=     768KiB time=00:00:03.71 bitrate=1692.9kbits/s speed=0.0142x elapsed=0:04:21.28    \nframe=  226 fps=0.9 q=38.3 size=     768KiB time=00:00:03.73 bitrate=1685.3kbits/s speed=0.0143x elapsed=0:04:21.79    \nframe=  226 fps=0.9 q=38.3 size=     768KiB time=00:00:03.73 bitrate=1685.3kbits/s speed=0.0142x elapsed=0:04:22.30    \nframe=  227 fps=0.9 q=43.5 size=     768KiB time=00:00:03.75 bitrate=1677.8kbits/s speed=0.0143x elapsed=0:04:22.82    \nframe=  230 fps=0.9 q=39.1 size=     768KiB time=00:00:03.80 bitrate=1655.7kbits/s speed=0.0144x elapsed=0:04:23.33    \nframe=  230 fps=0.9 q=39.1 size=     768KiB time=00:00:03.80 bitrate=1655.7kbits/s speed=0.0144x elapsed=0:04:23.92    \nframe=  230 fps=0.9 q=39.1 size=     768KiB time=00:00:03.80 bitrate=1655.7kbits/s speed=0.0144x elapsed=0:04:24.48    \nframe=  230 fps=0.9 q=39.1 size=     768KiB time=00:00:03.80 bitrate=1655.7kbits/s speed=0.0143x elapsed=0:04:25.06    \nframe=  230 fps=0.9 q=39.1 size=     768KiB time=00:00:03.80 bitrate=1655.7kbits/s speed=0.0143x elapsed=0:04:25.63    \nframe=  230 fps=0.9 q=39.1 size=     768KiB time=00:00:03.80 bitrate=1655.7kbits/s speed=0.0143x elapsed=0:04:26.20    \nframe=  231 fps=0.9 q=44.8 size=     768KiB time=00:00:03.81 bitrate=1648.5kbits/s speed=0.0143x elapsed=0:04:26.73    \nframe=  231 fps=0.9 q=44.8 size=     768KiB time=00:00:03.81 bitrate=1648.5kbits/s speed=0.0143x elapsed=0:04:27.29    \nframe=  231 fps=0.9 q=44.8 size=     768KiB time=00:00:03.81 bitrate=1648.5kbits/s speed=0.0142x elapsed=0:04:27.85    \nframe=  232 fps=0.9 q=46.0 size=     768KiB time=00:00:03.83 bitrate=1641.3kbits/s speed=0.0143x elapsed=0:04:28.43    \nframe=  232 fps=0.9 q=46.0 size=     768KiB time=00:00:03.83 bitrate=1641.3kbits/s speed=0.0143x elapsed=0:04:28.99    \nframe=  232 fps=0.9 q=46.0 size=     768KiB time=00:00:03.83 bitrate=1641.3kbits/s speed=0.0142x elapsed=0:04:29.53    \nframe=  232 fps=0.9 q=46.0 size=     768KiB time=00:00:03.83 bitrate=1641.3kbits/s speed=0.0142x elapsed=0:04:30.04    \nframe=  232 fps=0.9 q=46.0 size=     768KiB time=00:00:03.83 bitrate=1641.3kbits/s speed=0.0142x elapsed=0:04:30.58    \nframe=  233 fps=0.9 q=47.0 size=     768KiB time=00:00:03.85 bitrate=1634.2kbits/s speed=0.0142x elapsed=0:04:31.12    \nframe=  233 fps=0.9 q=47.0 size=     768KiB time=00:00:03.85 bitrate=1634.2kbits/s speed=0.0142x elapsed=0:04:31.65    \nframe=  233 fps=0.9 q=47.0 size=     768KiB time=00:00:03.85 bitrate=1634.2kbits/s speed=0.0141x elapsed=0:04:32.26    \nframe=  233 fps=0.9 q=47.0 size=     768KiB time=00:00:03.85 bitrate=1634.2kbits/s speed=0.0141x elapsed=0:04:32.89    \nframe=  233 fps=0.9 q=47.0 size=     768KiB time=00:00:03.85 bitrate=1634.2kbits/s speed=0.0141x elapsed=0:04:33.47    \nframe=  233 fps=0.9 q=47.0 size=     768KiB time=00:00:03.85 bitrate=1634.2kbits/s speed=0.014x elapsed=0:04:34.08    \nframe=  233 fps=0.8 q=47.0 size=     768KiB time=00:00:03.85 bitrate=1634.2kbits/s speed=0.014x elapsed=0:04:34.64    \nframe=  234 fps=0.9 q=38.9 size=     768KiB time=00:00:03.86 bitrate=1627.2kbits/s speed=0.0141x elapsed=0:04:35.17    \nframe=  234 fps=0.8 q=38.9 size=     768KiB time=00:00:03.86 bitrate=1627.2kbits/s speed=0.014x elapsed=0:04:35.72    \nframe=  234 fps=0.8 q=38.9 size=     768KiB time=00:00:03.86 bitrate=1627.2kbits/s speed=0.014x elapsed=0:04:36.25    \nframe=  234 fps=0.8 q=38.9 size=     768KiB time=00:00:03.86 bitrate=1627.2kbits/s speed=0.014x elapsed=0:04:36.79    \nframe=  234 fps=0.8 q=38.9 size=     768KiB time=00:00:03.86 bitrate=1627.2kbits/s speed=0.0139x elapsed=0:04:37.33    \nframe=  234 fps=0.8 q=38.9 size=     768KiB time=00:00:03.86 bitrate=1627.2kbits/s speed=0.0139x elapsed=0:04:37.85    \nframe=  234 fps=0.8 q=38.9 size=     768KiB time=00:00:03.86 bitrate=1627.2kbits/s speed=0.0139x elapsed=0:04:38.40    \nframe=  234 fps=0.8 q=38.9 size=     768KiB time=00:00:03.86 bitrate=1627.2kbits/s speed=0.0139x elapsed=0:04:38.95    \nframe=  235 fps=0.8 q=45.6 size=     768KiB time=00:00:03.88 bitrate=1620.2kbits/s speed=0.0139x elapsed=0:04:39.48    \nframe=  235 fps=0.8 q=45.6 size=     768KiB time=00:00:03.88 bitrate=1620.2kbits/s speed=0.0139x elapsed=0:04:40.01    \nframe=  236 fps=0.8 q=47.0 size=     768KiB time=00:00:03.90 bitrate=1613.3kbits/s speed=0.0139x elapsed=0:04:40.58    \nframe=  236 fps=0.8 q=47.0 size=     768KiB time=00:00:03.90 bitrate=1613.3kbits/s speed=0.0139x elapsed=0:04:41.14    \nframe=  237 fps=0.8 q=47.0 size=     768KiB time=00:00:03.91 bitrate=1606.4kbits/s speed=0.0139x elapsed=0:04:41.70    \nframe=  237 fps=0.8 q=47.0 size=     768KiB time=00:00:03.91 bitrate=1606.4kbits/s speed=0.0139x elapsed=0:04:42.27    \nframe=  237 fps=0.8 q=47.0 size=     768KiB time=00:00:03.91 bitrate=1606.4kbits/s speed=0.0138x elapsed=0:04:42.85    \nframe=  237 fps=0.8 q=47.0 size=     768KiB time=00:00:03.91 bitrate=1606.4kbits/s speed=0.0138x elapsed=0:04:43.42    \nframe=  238 fps=0.8 q=39.3 size=     768KiB time=00:00:03.93 bitrate=1599.6kbits/s speed=0.0138x elapsed=0:04:44.00    \nframe=  239 fps=0.8 q=45.6 size=     768KiB time=00:00:03.95 bitrate=1592.9kbits/s speed=0.0139x elapsed=0:04:44.54    \nframe=  239 fps=0.8 q=45.6 size=     768KiB time=00:00:03.95 bitrate=1592.9kbits/s speed=0.0139x elapsed=0:04:45.13    \nframe=  239 fps=0.8 q=45.6 size=     768KiB time=00:00:03.95 bitrate=1592.9kbits/s speed=0.0138x elapsed=0:04:45.71    \nframe=  239 fps=0.8 q=45.6 size=     768KiB time=00:00:03.95 bitrate=1592.9kbits/s speed=0.0138x elapsed=0:04:46.25    \nframe=  239 fps=0.8 q=45.6 size=     768KiB time=00:00:03.95 bitrate=1592.9kbits/s speed=0.0138x elapsed=0:04:46.77    \nframe=  239 fps=0.8 q=45.6 size=     768KiB time=00:00:03.95 bitrate=1592.9kbits/s speed=0.0137x elapsed=0:04:47.32    \nframe=  239 fps=0.8 q=45.6 size=     768KiB time=00:00:03.95 bitrate=1592.9kbits/s speed=0.0137x elapsed=0:04:47.92    \nframe=  239 fps=0.8 q=45.6 size=     768KiB time=00:00:03.95 bitrate=1592.9kbits/s speed=0.0137x elapsed=0:04:48.49    \nframe=  239 fps=0.8 q=45.6 size=     768KiB time=00:00:03.95 bitrate=1592.9kbits/s speed=0.0137x elapsed=0:04:49.05    \nframe=  240 fps=0.8 q=46.0 size=     768KiB time=00:00:03.96 bitrate=1586.2kbits/s speed=0.0137x elapsed=0:04:49.62    \nframe=  240 fps=0.8 q=46.0 size=     768KiB time=00:00:03.96 bitrate=1586.2kbits/s speed=0.0137x elapsed=0:04:50.14    \nframe=  240 fps=0.8 q=46.0 size=     768KiB time=00:00:03.96 bitrate=1586.2kbits/s speed=0.0136x elapsed=0:04:50.71    \nframe=  240 fps=0.8 q=46.0 size=     768KiB time=00:00:03.96 bitrate=1586.2kbits/s speed=0.0136x elapsed=0:04:51.31    \nframe=  240 fps=0.8 q=46.0 size=     768KiB time=00:00:03.96 bitrate=1586.2kbits/s speed=0.0136x elapsed=0:04:51.90    \nframe=  240 fps=0.8 q=46.0 size=     768KiB time=00:00:03.96 bitrate=1586.2kbits/s speed=0.0136x elapsed=0:04:52.50    \nframe=  240 fps=0.8 q=46.0 size=     768KiB time=00:00:03.96 bitrate=1586.2kbits/s speed=0.0135x elapsed=0:04:53.06    \nframe=  241 fps=0.8 q=47.0 size=     768KiB time=00:00:03.98 bitrate=1579.5kbits/s speed=0.0136x elapsed=0:04:53.63    \nframe=  241 fps=0.8 q=47.0 size=     768KiB time=00:00:03.98 bitrate=1579.5kbits/s speed=0.0135x elapsed=0:04:54.17    \nframe=  241 fps=0.8 q=47.0 size=     768KiB time=00:00:03.98 bitrate=1579.5kbits/s speed=0.0135x elapsed=0:04:54.74    \nframe=  242 fps=0.8 q=38.5 size=     768KiB time=00:00:04.00 bitrate=1573.0kbits/s speed=0.0135x elapsed=0:04:55.29    \nframe=  242 fps=0.8 q=38.5 size=     768KiB time=00:00:04.00 bitrate=1573.0kbits/s speed=0.0135x elapsed=0:04:55.84    \nframe=  242 fps=0.8 q=38.5 size=     768KiB time=00:00:04.00 bitrate=1573.0kbits/s speed=0.0135x elapsed=0:04:56.39    \nframe=  242 fps=0.8 q=38.5 size=     768KiB time=00:00:04.00 bitrate=1573.0kbits/s speed=0.0135x elapsed=0:04:56.95    \nframe=  243 fps=0.8 q=45.0 size=     768KiB time=00:00:04.01 bitrate=1566.4kbits/s speed=0.0135x elapsed=0:04:57.51    \nframe=  243 fps=0.8 q=45.0 size=     768KiB time=00:00:04.01 bitrate=1566.4kbits/s speed=0.0135x elapsed=0:04:58.07    \nframe=  243 fps=0.8 q=45.0 size=     768KiB time=00:00:04.01 bitrate=1566.4kbits/s speed=0.0135x elapsed=0:04:58.62    \nframe=  244 fps=0.8 q=46.1 size=     768KiB time=00:00:04.03 bitrate=1560.0kbits/s speed=0.0135x elapsed=0:04:59.15    \nframe=  244 fps=0.8 q=46.1 size=     768KiB time=00:00:04.03 bitrate=1560.0kbits/s speed=0.0135x elapsed=0:04:59.68    \nframe=  244 fps=0.8 q=46.1 size=     768KiB time=00:00:04.03 bitrate=1560.0kbits/s speed=0.0134x elapsed=0:05:00.23    \nframe=  244 fps=0.8 q=46.1 size=     768KiB time=00:00:04.03 bitrate=1560.0kbits/s speed=0.0134x elapsed=0:05:00.81    \nframe=  244 fps=0.8 q=46.1 size=     768KiB time=00:00:04.03 bitrate=1560.0kbits/s speed=0.0134x elapsed=0:05:01.42    \nframe=  244 fps=0.8 q=46.1 size=     768KiB time=00:00:04.03 bitrate=1560.0kbits/s speed=0.0134x elapsed=0:05:01.99    \nframe=  245 fps=0.8 q=46.1 size=     768KiB time=00:00:04.05 bitrate=1553.5kbits/s speed=0.0134x elapsed=0:05:02.54    \nframe=  245 fps=0.8 q=46.1 size=     768KiB time=00:00:04.05 bitrate=1553.5kbits/s speed=0.0134x elapsed=0:05:03.08    \nframe=  245 fps=0.8 q=46.1 size=     768KiB time=00:00:04.05 bitrate=1553.5kbits/s speed=0.0133x elapsed=0:05:03.63    \nframe=  246 fps=0.8 q=46.0 size=     768KiB time=00:00:04.06 bitrate=1547.2kbits/s speed=0.0134x elapsed=0:05:04.15    \nframe=  246 fps=0.8 q=46.0 size=     768KiB time=00:00:04.06 bitrate=1547.2kbits/s speed=0.0133x elapsed=0:05:04.69    \nframe=  246 fps=0.8 q=46.0 size=     768KiB time=00:00:04.06 bitrate=1547.2kbits/s speed=0.0133x elapsed=0:05:05.24    \nframe=  247 fps=0.8 q=38.8 size=     768KiB time=00:00:04.06 bitrate=1547.2kbits/s speed=0.0133x elapsed=0:05:05.84    \nframe=  247 fps=0.8 q=38.8 size=     768KiB time=00:00:04.08 bitrate=1540.9kbits/s speed=0.0133x elapsed=0:05:06.43    \nframe=  247 fps=0.8 q=38.8 size=     768KiB time=00:00:04.08 bitrate=1540.9kbits/s speed=0.0133x elapsed=0:05:06.97    \nframe=  247 fps=0.8 q=38.8 size=     768KiB time=00:00:04.08 bitrate=1540.9kbits/s speed=0.0133x elapsed=0:05:07.54    \nframe=  247 fps=0.8 q=38.8 size=     768KiB time=00:00:04.08 bitrate=1540.9kbits/s speed=0.0133x elapsed=0:05:08.11    \nframe=  247 fps=0.8 q=38.8 size=     768KiB time=00:00:04.08 bitrate=1540.9kbits/s speed=0.0132x elapsed=0:05:08.65    \nframe=  248 fps=0.8 q=44.7 size=     768KiB time=00:00:04.10 bitrate=1534.6kbits/s speed=0.0133x elapsed=0:05:09.18    \nframe=  248 fps=0.8 q=44.7 size=     768KiB time=00:00:04.10 bitrate=1534.6kbits/s speed=0.0132x elapsed=0:05:09.73    \nframe=  248 fps=0.8 q=44.7 size=     768KiB time=00:00:04.10 bitrate=1534.6kbits/s speed=0.0132x elapsed=0:05:10.26    \nframe=  248 fps=0.8 q=44.7 size=     768KiB time=00:00:04.10 bitrate=1534.6kbits/s speed=0.0132x elapsed=0:05:10.78    \nframe=  248 fps=0.8 q=44.7 size=     768KiB time=00:00:04.10 bitrate=1534.6kbits/s speed=0.0132x elapsed=0:05:11.33    \nframe=  248 fps=0.8 q=44.7 size=     768KiB time=00:00:04.10 bitrate=1534.6kbits/s speed=0.0131x elapsed=0:05:11.89    \nframe=  248 fps=0.8 q=44.7 size=     768KiB time=00:00:04.10 bitrate=1534.6kbits/s speed=0.0131x elapsed=0:05:12.43    \nframe=  248 fps=0.8 q=44.7 size=     768KiB time=00:00:04.10 bitrate=1534.6kbits/s speed=0.0131x elapsed=0:05:13.00    \nframe=  248 fps=0.8 q=44.7 size=     768KiB time=00:00:04.10 bitrate=1534.6kbits/s speed=0.0131x elapsed=0:05:13.55    \nframe=  248 fps=0.8 q=44.7 size=     768KiB time=00:00:04.10 bitrate=1534.6kbits/s speed=0.0131x elapsed=0:05:14.09    \nframe=  249 fps=0.8 q=46.0 size=     768KiB time=00:00:04.11 bitrate=1528.4kbits/s speed=0.0131x elapsed=0:05:14.62    \nframe=  249 fps=0.8 q=46.0 size=     768KiB time=00:00:04.11 bitrate=1528.4kbits/s speed=0.0131x elapsed=0:05:15.15    \nframe=  249 fps=0.8 q=46.0 size=     768KiB time=00:00:04.11 bitrate=1528.4kbits/s speed=0.013x elapsed=0:05:15.72    \nframe=  249 fps=0.8 q=46.0 size=     768KiB time=00:00:04.11 bitrate=1528.4kbits/s speed=0.013x elapsed=0:05:16.32    \nframe=  249 fps=0.8 q=46.0 size=     768KiB time=00:00:04.11 bitrate=1528.4kbits/s speed=0.013x elapsed=0:05:16.84    \nframe=  249 fps=0.8 q=46.0 size=     768KiB time=00:00:04.11 bitrate=1528.4kbits/s speed=0.013x elapsed=0:05:17.35    \nframe=  249 fps=0.8 q=46.0 size=     768KiB time=00:00:04.11 bitrate=1528.4kbits/s speed=0.013x elapsed=0:05:17.88    \nframe=  250 fps=0.8 q=46.0 size=     768KiB time=00:00:04.11 bitrate=1528.4kbits/s speed=0.0129x elapsed=0:05:18.44    \nframe=  250 fps=0.8 q=46.0 size=     768KiB time=00:00:04.13 bitrate=1522.2kbits/s speed=0.013x elapsed=0:05:18.99    \nframe=  250 fps=0.8 q=46.0 size=     768KiB time=00:00:04.13 bitrate=1522.2kbits/s speed=0.0129x elapsed=0:05:19.51    \nframe=  250 fps=0.8 q=46.0 size=     768KiB time=00:00:04.13 bitrate=1522.2kbits/s speed=0.0129x elapsed=0:05:20.04    \nframe=  250 fps=0.8 q=46.0 size=     768KiB time=00:00:04.13 bitrate=1522.2kbits/s speed=0.0129x elapsed=0:05:20.57    \nframe=  251 fps=0.8 q=39.0 size=     768KiB time=00:00:04.15 bitrate=1516.1kbits/s speed=0.0129x elapsed=0:05:21.11    \nframe=  251 fps=0.8 q=39.0 size=     768KiB time=00:00:04.15 bitrate=1516.1kbits/s speed=0.0129x elapsed=0:05:21.66    \nframe=  251 fps=0.8 q=39.0 size=     768KiB time=00:00:04.15 bitrate=1516.1kbits/s speed=0.0129x elapsed=0:05:22.20    \nframe=  251 fps=0.8 q=39.0 size=     768KiB time=00:00:04.15 bitrate=1516.1kbits/s speed=0.0129x elapsed=0:05:22.78    \nframe=  252 fps=0.8 q=39.9 size=    1024KiB time=00:00:04.16 bitrate=2013.4kbits/s speed=0.0129x elapsed=0:05:23.31    \nframe=  252 fps=0.8 q=39.9 size=    1024KiB time=00:00:04.16 bitrate=2013.4kbits/s speed=0.0129x elapsed=0:05:23.86    \nframe=  252 fps=0.8 q=39.9 size=    1024KiB time=00:00:04.16 bitrate=2013.4kbits/s speed=0.0128x elapsed=0:05:24.39    \nframe=  252 fps=0.8 q=39.9 size=    1024KiB time=00:00:04.16 bitrate=2013.4kbits/s speed=0.0128x elapsed=0:05:24.94    \nframe=  252 fps=0.8 q=39.9 size=    1024KiB time=00:00:04.16 bitrate=2013.4kbits/s speed=0.0128x elapsed=0:05:25.46    \nframe=  253 fps=0.8 q=45.8 size=    1024KiB time=00:00:04.18 bitrate=2005.3kbits/s speed=0.0128x elapsed=0:05:25.99    \nframe=  253 fps=0.8 q=45.8 size=    1024KiB time=00:00:04.18 bitrate=2005.3kbits/s speed=0.0128x elapsed=0:05:26.56    \nframe=  253 fps=0.8 q=45.8 size=    1024KiB time=00:00:04.18 bitrate=2005.3kbits/s speed=0.0128x elapsed=0:05:27.18    \nframe=  253 fps=0.8 q=45.8 size=    1024KiB time=00:00:04.18 bitrate=2005.3kbits/s speed=0.0128x elapsed=0:05:27.76    \nframe=  253 fps=0.8 q=45.8 size=    1024KiB time=00:00:04.18 bitrate=2005.3kbits/s speed=0.0127x elapsed=0:05:28.35    \nframe=  253 fps=0.8 q=45.8 size=    1024KiB time=00:00:04.18 bitrate=2005.3kbits/s speed=0.0127x elapsed=0:05:28.97    \nframe=  253 fps=0.8 q=45.8 size=    1024KiB time=00:00:04.18 bitrate=2005.3kbits/s speed=0.0127x elapsed=0:05:29.66    \nframe=  253 fps=0.8 q=45.8 size=    1024KiB time=00:00:04.18 bitrate=2005.3kbits/s speed=0.0127x elapsed=0:05:30.29    \nframe=  253 fps=0.8 q=45.8 size=    1024KiB time=00:00:04.18 bitrate=2005.3kbits/s speed=0.0126x elapsed=0:05:30.89    \nframe=  254 fps=0.8 q=47.0 size=    1024KiB time=00:00:04.20 bitrate=1997.4kbits/s speed=0.0127x elapsed=0:05:31.47    \nframe=  255 fps=0.8 q=48.0 size=    1024KiB time=00:00:04.21 bitrate=1989.5kbits/s speed=0.0127x elapsed=0:05:32.03    \nframe=  255 fps=0.8 q=48.0 size=    1024KiB time=00:00:04.21 bitrate=1989.5kbits/s speed=0.0127x elapsed=0:05:32.66    \nframe=  255 fps=0.8 q=48.0 size=    1024KiB time=00:00:04.21 bitrate=1989.5kbits/s speed=0.0127x elapsed=0:05:33.27    \nframe=  255 fps=0.8 q=48.0 size=    1024KiB time=00:00:04.21 bitrate=1989.5kbits/s speed=0.0126x elapsed=0:05:33.88    \nframe=  256 fps=0.8 q=39.4 size=    1024KiB time=00:00:04.23 bitrate=1981.6kbits/s speed=0.0127x elapsed=0:05:34.45    \nframe=  256 fps=0.8 q=39.4 size=    1024KiB time=00:00:04.23 bitrate=1981.6kbits/s speed=0.0126x elapsed=0:05:34.97    \nframe=  256 fps=0.8 q=39.4 size=    1024KiB time=00:00:04.23 bitrate=1981.6kbits/s speed=0.0126x elapsed=0:05:35.52    \nframe=  256 fps=0.8 q=39.4 size=    1024KiB time=00:00:04.23 bitrate=1981.6kbits/s speed=0.0126x elapsed=0:05:36.09    \nframe=  257 fps=0.8 q=46.7 size=    1024KiB time=00:00:04.25 bitrate=1973.9kbits/s speed=0.0126x elapsed=0:05:36.63    \nframe=  257 fps=0.8 q=46.7 size=    1024KiB time=00:00:04.25 bitrate=1973.9kbits/s speed=0.0126x elapsed=0:05:37.18    \nframe=  258 fps=0.8 q=48.0 size=    1024KiB time=00:00:04.26 bitrate=1966.2kbits/s speed=0.0126x elapsed=0:05:37.71    \nframe=  259 fps=0.8 q=48.0 size=    1024KiB time=00:00:04.28 bitrate=1958.5kbits/s speed=0.0127x elapsed=0:05:38.23    \nframe=  259 fps=0.8 q=48.0 size=    1024KiB time=00:00:04.28 bitrate=1958.5kbits/s speed=0.0126x elapsed=0:05:38.77    \nframe=  260 fps=0.8 q=39.5 size=    1024KiB time=00:00:04.30 bitrate=1950.9kbits/s speed=0.0127x elapsed=0:05:39.33    \nframe=  261 fps=0.8 q=42.6 size=    1024KiB time=00:00:04.31 bitrate=1943.4kbits/s speed=0.0127x elapsed=0:05:39.87    \nframe=  261 fps=0.8 q=42.6 size=    1024KiB time=00:00:04.31 bitrate=1943.4kbits/s speed=0.0127x elapsed=0:05:40.39    \nframe=  262 fps=0.8 q=48.0 size=    1024KiB time=00:00:04.33 bitrate=1935.9kbits/s speed=0.0127x elapsed=0:05:40.94    \nframe=  262 fps=0.8 q=48.0 size=    1024KiB time=00:00:04.33 bitrate=1935.9kbits/s speed=0.0127x elapsed=0:05:41.47    \nframe=  262 fps=0.8 q=48.0 size=    1024KiB time=00:00:04.33 bitrate=1935.9kbits/s speed=0.0127x elapsed=0:05:42.01    \nframe=  263 fps=0.8 q=48.0 size=    1024KiB time=00:00:04.35 bitrate=1928.5kbits/s speed=0.0127x elapsed=0:05:42.53    \nframe=  264 fps=0.8 q=48.0 size=    1024KiB time=00:00:04.36 bitrate=1921.1kbits/s speed=0.0127x elapsed=0:05:43.06    \nframe=  264 fps=0.8 q=48.0 size=    1024KiB time=00:00:04.36 bitrate=1921.1kbits/s speed=0.0127x elapsed=0:05:43.60    \nframe=  264 fps=0.8 q=48.0 size=    1024KiB time=00:00:04.36 bitrate=1921.1kbits/s speed=0.0127x elapsed=0:05:44.14    \nframe=  264 fps=0.8 q=48.0 size=    1024KiB time=00:00:04.36 bitrate=1921.1kbits/s speed=0.0127x elapsed=0:05:44.68    \nframe=  264 fps=0.8 q=48.0 size=    1024KiB time=00:00:04.36 bitrate=1921.1kbits/s speed=0.0126x elapsed=0:05:45.21    \nframe=  266 fps=0.8 q=45.9 size=    1024KiB time=00:00:04.40 bitrate=1906.6kbits/s speed=0.0127x elapsed=0:05:45.73    \nframe=  266 fps=0.8 q=45.9 size=    1024KiB time=00:00:04.40 bitrate=1906.6kbits/s speed=0.0127x elapsed=0:05:46.25    \nframe=  266 fps=0.8 q=45.9 size=    1024KiB time=00:00:04.40 bitrate=1906.6kbits/s speed=0.0127x elapsed=0:05:46.76    \nframe=  267 fps=0.8 q=48.0 size=    1024KiB time=00:00:04.41 bitrate=1899.4kbits/s speed=0.0127x elapsed=0:05:47.28    \nframe=  269 fps=0.8 q=39.3 size=    1024KiB time=00:00:04.45 bitrate=1885.2kbits/s speed=0.0128x elapsed=0:05:47.82    \nframe=  269 fps=0.8 q=39.3 size=    1024KiB time=00:00:04.45 bitrate=1885.2kbits/s speed=0.0128x elapsed=0:05:48.34    \nframe=  269 fps=0.8 q=39.3 size=    1024KiB time=00:00:04.45 bitrate=1885.2kbits/s speed=0.0128x elapsed=0:05:48.90    \nframe=  270 fps=0.8 q=45.9 size=    1024KiB time=00:00:04.46 bitrate=1878.1kbits/s speed=0.0128x elapsed=0:05:49.42    \nframe=  271 fps=0.8 q=48.0 size=    1024KiB time=00:00:04.48 bitrate=1871.1kbits/s speed=0.0128x elapsed=0:05:49.96    \nframe=  271 fps=0.8 q=48.0 size=    1024KiB time=00:00:04.48 bitrate=1871.1kbits/s speed=0.0128x elapsed=0:05:50.48    \nframe=  271 fps=0.8 q=48.0 size=    1024KiB time=00:00:04.48 bitrate=1871.1kbits/s speed=0.0128x elapsed=0:05:51.02    \nframe=  272 fps=0.8 q=48.0 size=    1024KiB time=00:00:04.50 bitrate=1864.2kbits/s speed=0.0128x elapsed=0:05:51.56    \nframe=  272 fps=0.8 q=48.0 size=    1024KiB time=00:00:04.50 bitrate=1864.2kbits/s speed=0.0128x elapsed=0:05:52.08    \nframe=  273 fps=0.8 q=39.6 size=    1024KiB time=00:00:04.51 bitrate=1857.3kbits/s speed=0.0128x elapsed=0:05:52.60    \nframe=  273 fps=0.8 q=39.6 size=    1024KiB time=00:00:04.51 bitrate=1857.3kbits/s speed=0.0128x elapsed=0:05:53.12    \nframe=  273 fps=0.8 q=39.6 size=    1024KiB time=00:00:04.51 bitrate=1857.3kbits/s speed=0.0128x elapsed=0:05:53.66    \nframe=  273 fps=0.8 q=39.6 size=    1024KiB time=00:00:04.51 bitrate=1857.3kbits/s speed=0.0128x elapsed=0:05:54.18    \nframe=  274 fps=0.8 q=45.8 size=    1024KiB time=00:00:04.51 bitrate=1857.3kbits/s speed=0.0127x elapsed=0:05:54.71    \nframe=  274 fps=0.8 q=45.8 size=    1024KiB time=00:00:04.53 bitrate=1850.5kbits/s speed=0.0128x elapsed=0:05:55.25    \nframe=  275 fps=0.8 q=48.0 size=    1024KiB time=00:00:04.55 bitrate=1843.7kbits/s speed=0.0128x elapsed=0:05:55.75    \nframe=  275 fps=0.8 q=48.0 size=    1024KiB time=00:00:04.55 bitrate=1843.7kbits/s speed=0.0128x elapsed=0:05:56.29    \nframe=  277 fps=0.8 q=39.6 size=    1024KiB time=00:00:04.58 bitrate=1830.3kbits/s speed=0.0128x elapsed=0:05:56.83    \nframe=  278 fps=0.8 q=45.9 size=    1024KiB time=00:00:04.58 bitrate=1830.3kbits/s speed=0.0128x elapsed=0:05:57.35    \nframe=  278 fps=0.8 q=45.9 size=    1024KiB time=00:00:04.60 bitrate=1823.7kbits/s speed=0.0129x elapsed=0:05:57.87    \nframe=  278 fps=0.8 q=45.9 size=    1024KiB time=00:00:04.60 bitrate=1823.7kbits/s speed=0.0128x elapsed=0:05:58.40    \nframe=  279 fps=0.8 q=47.0 size=    1024KiB time=00:00:04.61 bitrate=1817.1kbits/s speed=0.0129x elapsed=0:05:58.94    \nframe=  280 fps=0.8 q=46.0 size=    1024KiB time=00:00:04.63 bitrate=1810.6kbits/s speed=0.0129x elapsed=0:05:59.48    \nframe=  281 fps=0.8 q=39.4 size=    1024KiB time=00:00:04.65 bitrate=1804.1kbits/s speed=0.0129x elapsed=0:06:00.00    \nframe=  282 fps=0.8 q=45.7 size=    1024KiB time=00:00:04.66 bitrate=1797.6kbits/s speed=0.0129x elapsed=0:06:00.54    \nframe=  283 fps=0.8 q=46.0 size=    1024KiB time=00:00:04.68 bitrate=1791.2kbits/s speed=0.013x elapsed=0:06:01.06    \nframe=  284 fps=0.8 q=46.0 size=    1024KiB time=00:00:04.70 bitrate=1784.9kbits/s speed=0.013x elapsed=0:06:01.61    \nframe=  284 fps=0.8 q=46.0 size=    1024KiB time=00:00:04.70 bitrate=1784.9kbits/s speed=0.013x elapsed=0:06:02.13    \nframe=  285 fps=0.8 q=39.2 size=    1024KiB time=00:00:04.71 bitrate=1778.6kbits/s speed=0.013x elapsed=0:06:02.66    \nframe=  285 fps=0.8 q=39.2 size=    1024KiB time=00:00:04.71 bitrate=1778.6kbits/s speed=0.013x elapsed=0:06:03.20    \nframe=  286 fps=0.8 q=44.7 size=    1024KiB time=00:00:04.73 bitrate=1772.3kbits/s speed=0.013x elapsed=0:06:03.71    \nframe=  286 fps=0.8 q=44.7 size=    1024KiB time=00:00:04.73 bitrate=1772.3kbits/s speed=0.013x elapsed=0:06:04.22    \nframe=  286 fps=0.8 q=44.7 size=    1024KiB time=00:00:04.73 bitrate=1772.3kbits/s speed=0.013x elapsed=0:06:04.76    \nframe=  286 fps=0.8 q=44.7 size=    1024KiB time=00:00:04.73 bitrate=1772.3kbits/s speed=0.013x elapsed=0:06:05.32    \nframe=  288 fps=0.8 q=46.0 size=    1024KiB time=00:00:04.76 bitrate=1759.9kbits/s speed=0.013x elapsed=0:06:05.88    \nframe=  288 fps=0.8 q=46.0 size=    1024KiB time=00:00:04.76 bitrate=1759.9kbits/s speed=0.013x elapsed=0:06:06.42    \nframe=  288 fps=0.8 q=46.0 size=    1024KiB time=00:00:04.76 bitrate=1759.9kbits/s speed=0.013x elapsed=0:06:06.99    \nframe=  288 fps=0.8 q=46.0 size=    1024KiB time=00:00:04.76 bitrate=1759.9kbits/s speed=0.013x elapsed=0:06:07.55    \nframe=  289 fps=0.8 q=39.6 size=    1024KiB time=00:00:04.78 bitrate=1753.8kbits/s speed=0.013x elapsed=0:06:08.11    \nframe=  289 fps=0.8 q=39.6 size=    1024KiB time=00:00:04.78 bitrate=1753.8kbits/s speed=0.013x elapsed=0:06:08.74    \nframe=  289 fps=0.8 q=39.6 size=    1024KiB time=00:00:04.78 bitrate=1753.8kbits/s speed=0.013x elapsed=0:06:09.33    \nframe=  289 fps=0.8 q=39.6 size=    1024KiB time=00:00:04.78 bitrate=1753.8kbits/s speed=0.0129x elapsed=0:06:09.92    \nframe=  289 fps=0.8 q=39.6 size=    1024KiB time=00:00:04.78 bitrate=1753.8kbits/s speed=0.0129x elapsed=0:06:10.55    \nframe=  289 fps=0.8 q=39.6 size=    1024KiB time=00:00:04.78 bitrate=1753.8kbits/s speed=0.0129x elapsed=0:06:11.15    \nframe=  290 fps=0.8 q=44.8 size=    1024KiB time=00:00:04.80 bitrate=1747.7kbits/s speed=0.0129x elapsed=0:06:11.71    \nframe=  290 fps=0.8 q=44.8 size=    1024KiB time=00:00:04.80 bitrate=1747.7kbits/s speed=0.0129x elapsed=0:06:12.28    \nframe=  290 fps=0.8 q=44.8 size=    1024KiB time=00:00:04.80 bitrate=1747.7kbits/s speed=0.0129x elapsed=0:06:12.81    \nframe=  290 fps=0.8 q=44.8 size=    1024KiB time=00:00:04.80 bitrate=1747.7kbits/s speed=0.0129x elapsed=0:06:13.35    \nframe=  290 fps=0.8 q=44.8 size=    1024KiB time=00:00:04.80 bitrate=1747.7kbits/s speed=0.0128x elapsed=0:06:13.90    \nframe=  291 fps=0.8 q=45.0 size=    1024KiB time=00:00:04.81 bitrate=1741.7kbits/s speed=0.0129x elapsed=0:06:14.46    \nframe=  292 fps=0.8 q=44.0 size=    1024KiB time=00:00:04.83 bitrate=1735.6kbits/s speed=0.0129x elapsed=0:06:15.00    \nframe=  292 fps=0.8 q=44.0 size=    1024KiB time=00:00:04.83 bitrate=1735.6kbits/s speed=0.0129x elapsed=0:06:15.58    \nframe=  292 fps=0.8 q=44.0 size=    1024KiB time=00:00:04.83 bitrate=1735.6kbits/s speed=0.0128x elapsed=0:06:16.15    \nframe=  293 fps=0.8 q=40.2 size=    1024KiB time=00:00:04.85 bitrate=1729.7kbits/s speed=0.0129x elapsed=0:06:16.68    \nframe=  293 fps=0.8 q=40.2 size=    1024KiB time=00:00:04.85 bitrate=1729.7kbits/s speed=0.0129x elapsed=0:06:17.22    \nframe=  293 fps=0.8 q=40.2 size=    1024KiB time=00:00:04.85 bitrate=1729.7kbits/s speed=0.0128x elapsed=0:06:17.82    \nframe=  293 fps=0.8 q=40.2 size=    1024KiB time=00:00:04.85 bitrate=1729.7kbits/s speed=0.0128x elapsed=0:06:18.44    \nframe=  294 fps=0.8 q=42.1 size=    1024KiB time=00:00:04.86 bitrate=1723.8kbits/s speed=0.0128x elapsed=0:06:19.01    \nframe=  294 fps=0.8 q=42.1 size=    1024KiB time=00:00:04.86 bitrate=1723.8kbits/s speed=0.0128x elapsed=0:06:19.55    \nframe=  295 fps=0.8 q=43.0 size=    1024KiB time=00:00:04.88 bitrate=1717.9kbits/s speed=0.0128x elapsed=0:06:20.08    \nframe=  295 fps=0.8 q=43.0 size=    1024KiB time=00:00:04.88 bitrate=1717.9kbits/s speed=0.0128x elapsed=0:06:20.62    \nframe=  295 fps=0.8 q=43.0 size=    1024KiB time=00:00:04.88 bitrate=1717.9kbits/s speed=0.0128x elapsed=0:06:21.19    \nframe=  295 fps=0.8 q=43.0 size=    1024KiB time=00:00:04.88 bitrate=1717.9kbits/s speed=0.0128x elapsed=0:06:21.74    \nframe=  295 fps=0.8 q=43.0 size=    1024KiB time=00:00:04.88 bitrate=1717.9kbits/s speed=0.0128x elapsed=0:06:22.30    \nframe=  296 fps=0.8 q=41.1 size=    1024KiB time=00:00:04.90 bitrate=1712.0kbits/s speed=0.0128x elapsed=0:06:22.84    \nframe=  296 fps=0.8 q=41.1 size=    1024KiB time=00:00:04.90 bitrate=1712.0kbits/s speed=0.0128x elapsed=0:06:23.40    \nframe=  296 fps=0.8 q=41.1 size=    1024KiB time=00:00:04.90 bitrate=1712.0kbits/s speed=0.0128x elapsed=0:06:23.95    \nframe=  297 fps=0.8 q=39.7 size=    1024KiB time=00:00:04.91 bitrate=1706.2kbits/s speed=0.0128x elapsed=0:06:24.52    \nframe=  297 fps=0.8 q=39.7 size=    1024KiB time=00:00:04.91 bitrate=1706.2kbits/s speed=0.0128x elapsed=0:06:25.07    \nframe=  297 fps=0.8 q=39.7 size=    1024KiB time=00:00:04.91 bitrate=1706.2kbits/s speed=0.0127x elapsed=0:06:25.65    \nframe=  297 fps=0.8 q=39.7 size=    1024KiB time=00:00:04.91 bitrate=1706.2kbits/s speed=0.0127x elapsed=0:06:26.27    \nframe=  297 fps=0.8 q=39.7 size=    1024KiB time=00:00:04.91 bitrate=1706.2kbits/s speed=0.0127x elapsed=0:06:26.85    \nframe=  297 fps=0.8 q=39.7 size=    1024KiB time=00:00:04.91 bitrate=1706.2kbits/s speed=0.0127x elapsed=0:06:27.42    \nframe=  299 fps=0.8 q=41.9 size=    1024KiB time=00:00:04.95 bitrate=1694.7kbits/s speed=0.0128x elapsed=0:06:27.95    \nframe=  299 fps=0.8 q=41.9 size=    1024KiB time=00:00:04.95 bitrate=1694.7kbits/s speed=0.0127x elapsed=0:06:28.49    \nframe=  299 fps=0.8 q=41.9 size=    1024KiB time=00:00:04.95 bitrate=1694.7kbits/s speed=0.0127x elapsed=0:06:29.06    \nframe=  299 fps=0.8 q=41.9 size=    1024KiB time=00:00:04.95 bitrate=1694.7kbits/s speed=0.0127x elapsed=0:06:29.58    \nframe=  299 fps=0.8 q=41.9 size=    1024KiB time=00:00:04.95 bitrate=1694.7kbits/s speed=0.0127x elapsed=0:06:30.18    \n[mp4 @ 00000221d206f140] Starting second pass: moving the moov atom to the beginning of the file\n[out#0/mp4 @ 00000221d206f040] video:1197KiB audio:0KiB subtitle:0KiB other streams:0KiB global headers:2KiB muxing overhead: 0.592276%\nframe=  300 fps=0.8 q=38.7 Lsize=    1204KiB time=00:00:04.96 bitrate=1985.6kbits/s speed=0.0127x elapsed=0:06:30.58    \nx265 [info]: frame I:      2, Avg QP:41.48  kb/s: 33260.64\nx265 [info]: frame P:     77, Avg QP:39.90  kb/s: 6067.84 \nx265 [info]: frame B:    221, Avg QP:45.70  kb/s: 243.85  \nx265 [info]: Weighted P-Frames: Y:0.0% UV:0.0%\n\nencoded 300 frames in 389.29s (0.77 fps), 1958.79 kb/s, Avg QP:44.18\n",
  "seconds": 391.6368455886841,
  "probe_out": {}
}